<svg xmlns="http://www.w3.org/2000/svg" viewBox="0 0 390.59 55.51"><defs><style>.cls-1{fill:#f1f2f2;}</style></defs><g id="Layer_2" data-name="Layer 2"><g id="Liquify"><path class="cls-1" d="M2.63,40.53c.08,1.87.55,1.22,3.11-2.92C3.61,41.05,4.44,39.37,7,34.16c-2.21,4.08-1,1,.67-3.51-1.43,2.83.06-3.6.09-5.66,0-1.89,0-3.08.14-1.46C7.38,17,5,7.62,7.44,16.44,4.93,7.18,2.27,4.51,7.38,9.56c-5.12-5.08-6.12-6-1.68-4-4.45-2-4.83-2.36-1.91-3C.88,3.2,1.53,3.8,7.21,5.19,1.55,3.81,2.7,4.77,10.36,6.65c-7.61-1.87-2.55.48,7.17.14-8.66.41,3.86.48,7.34.94a33.2,33.2,0,0,1,3.53.93,7.73,7.73,0,0,1,2.5,1.12c2.93,1.23,4.85,2.56,3.22,4.34,4.84,1.68,6.14,3.8,4.52,8.93,2.72-1.58,2.84-.58,1.3,2.87,1.54-1.82,1.51-1.23.38,1.34.2.79-.93,3.39-2.36,5.76A25.07,25.07,0,0,1,25.69,43.74c-1,.22-2.09.53-3.27.87-2,.57-8.29.57-6.37,1.87C10.81,46.07,6,45,9.29,47.87,4.22,45.15,3,44.5,3.06,47.66,2.25,44.31,2,44.14,0,46.27c1.56-2.46,1.78-2.82.55-3.66C2.09,42.93,2.25,42.75,2.63,40.53Zm10.9-2.59c-4,2.35-5.34,3.9-.74,3.57-3.92.84,3.81-.11,7-.66a56.44,56.44,0,0,0,6.74-2,35.26,35.26,0,0,0,6.3-3.34,13.46,13.46,0,0,0,4.18-6c.89-2.41,1.07-4.89-1.12-5.91,1.16-3.79-.06-6.13-3.88-7.92,1-1,0-1.79-1.77-2.45a4.94,4.94,0,0,0-2.64-1.5c-2.33-.74-11.94-2.26-6.89-.18-7.41-1.3-10.53-1.69-4.88,4.92-6.37-4.93-3.11,1.48-1.85,6.28-.86-.68-.93.41-.78,1.95s0,4.16.56,4.63c-.44,1.64-1.73,4.07.16,3.3-1.79,2.61-3.13,4.52.18,3.24C10.66,38.48,9.44,39.54,13.53,37.94Z"/><path class="cls-1" d="M65.26,49.15c-.47,1.77-.47-.12-.47-2.64-1,2.1-2,1.14-2.93.93-1-1.59-1.88.12-2.8.22-.92.59-1.82-1.75-2.72.07a3,3,0,0,1-2.68-.07c-.89-.4-1.78-2.3-2.68,0-.9-1.34-1.81.69-2.73-.27-.89-.57-2-.35-2.66-1.89-.71-.29-1.22-3.1-1.5-3.85a8.75,8.75,0,0,1,.13-1.52c.09,0,.22-2.66.39-1.82a24,24,0,0,1,1.52-4.45c.63-1.8,1.4-2.8,2.36-3.05.85-2.38,1.86-3.6,3.68-2.5.42-3.34,1.65-4.36,4.71-3.22.09-3.32,2.25-4.44,5.55-4.38.61-1.18,2.36-1.18,3.4-.16a4.82,4.82,0,0,1,2.41,2.56,8,8,0,0,1,.41,3.64c-.08.89-.25,1.41-.47,2.83a34,34,0,0,0-.31,3.68c0,1.91.07,1.2.17,3.25.09,1.66.19,3.57.24,3.74,0-.74,0-.79-.09,3-.13.07-.39,2.45-.84,2.78-.45,2.07-1.09,4.39-2,3.44C65.31,46.91,65.28,47,65.26,49.15ZM49.34,38.5c-.55,2.2-1.55,1-.55,4a27,27,0,0,0,4.64,1.54c1.43-.5,2.73.47,3.88-.92,1.16-1.66,2.16-.89,3-2,.85.69,1.53-2.22,2-3.65.49-2.58.81-3.84.93-4.43A11.88,11.88,0,0,0,63,29.17c.3.79.27-2.66-.17-3.61-1.06-.55-2.06-.55-2.52.33-1.52-.12-2.49.64-3,2.33-1.36-.37-2.21.94-2.8,2.06-1,2-1.88.7-2.59,2-.77.39-1.36,1.48-1.55,3.18C49.94,36.6,49.58,36.42,49.34,38.5Z"/><path class="cls-1" d="M84.86,51.62c-1.18-2.7-2.28-.18-3.27-2.28-1,1-1.87-1.52-2.64-2.71-.77.73-1.42-2.56-1.93-2.88-.51-1.78-.88-1.81-1.1-3.6a16.81,16.81,0,0,1-.17-3.81c.11-.27.39-3.06.86-3.7-.63-.52-.79-2.51-1.11-3.72a17.51,17.51,0,0,1-.66-5.57,12.42,12.42,0,0,1,2-5.84c3.5,2.5,4.5,6,5,9.72.16,1.24.26,2.5.37,3.76a5.79,5.79,0,0,0,.42,2.59c.33,1.29.8,1.26,1.28,2.62.48.5,1,2.45,1.32,2.91.36.15.58,2.69.56,3.44.52-2.79.93-2.6,1.28-2.44.5-.92.91-.8,1.5-3.93.59-.66,1.37-2.94,2.61-3.75.65.09,1.3-2.29,1.83-2.56,1-1.44,1.89-2.85,1.24-3.25,2.08-2.59,2.66-4.17,0-4.55,3.18-1.57,3.41-1.81.38-.73,3.55-1.49,3.86-1.66.66-.48,3.88-1.45,4.27-1.52,1-.05,4.54-1.47,5.15-1.25,2.27,1.45,3.53-1.8,3.69-1.23,1.13,2.46,2.56-2.09,2.4-1.2.19,2.73,1.56-2.19,1-1.26-.94,1.89,1.29-2.15.91-1.61-.66.81.3-.62-.6.63-1.72,2.24-1.09-.46-2,1.67-2.68,2.35-.71,1.42-1.27,1.18-1.73,3A17.26,17.26,0,0,1,91,41.21c-.34,1.23-.67,2.07-1,3.54-.38,1.22-.82,3.18-1.4,3.46-.59.67-1.38,3.27-2.58,3.12C85.53,54.59,85.17,53.88,84.86,51.62Z"/><path class="cls-1" d="M103.18,43.22c.29-.68.64-2.6,1-4s.85-3.22,1.29-4.42c.25-1.19.48-2,.68-1.63.26-2.13.49-3,.8-1.54.16-3.22.39-4.09,1-1.67-.13-4.13.08-5,1.14-2-.83-3.85-.77-4,.37-.39-.9-4-.74-4.14.84-.63-1.15-3.89-.87-4.05,1.31-.7-1.52-3.62-1.13-3.69,1.66-.56-2-3.13-1.68-3.09,1.17-.19-2.23-2.77-2-2.66.85.07-2.31-2.46-2.12-2.28.45.38-2.27-2.21-2.2-1.95,0,.7-2.17-2.3-2.17-2.24-.06.18-2.11-2.28-2.12-2.22-.09.19-2-2.35-2.87.76-1.74,2.79-1.59-.29-2,1.45-2.34,3.78a23.22,23.22,0,0,0-1.59,4.65,49.55,49.55,0,0,1-1.4,5.25c-.46,2.52-.92,3.27-1.37,5.26,0,0-.1-.41-.17.44-.08.6-.19,1.31-.32.53-.14,1.06-.31.7-.5.44s-.43.89-.71.18c-.5.45-1,.39-1.34-.31-1.3-.47-2.3-1.12-2.3-3.52,0,.68,1-1.13.54.13C102.33,46.93,103.18,43,103.18,43.22Zm10.58-32.9c-2.84,2.16-2.66,1.67.25-1.82-2.4,2.31-2,1.79,1.07-1.32-2.07,2.46-1.69,2.3,1-.12-1.82,2.13-1.5,2.05.85.09-2,2-1.76,2,.6.39-2,1.92-1.77,2.06.6.6-2,1.81-1.83,2,.63.83-1.79,1.47-1.48,1.65.87.81-2,1.46-2,1.84.41,1.27-2.39,1.31-2.42,1.59.11,1-2.65,1.14-2.7,1.34,0,.71-2.86,1.2-3.09,1.58-.29,1.3-3.46,1-3.84,1.25-.73,1.05-4,.69-4.42.88-1,.73-4.32.42-4.73.49-1.13.27-4.4.22-4.74.14-1.13-.44-4.1.27-4.41-.06-1.26-1.81-3.74.95-3.86.72-.62-1.23-3.3,1.62-3.31,1.48-.16-.7-3.15,1.84-3.14,1.65-.08-.89C110.75,13.21,110.78,13.05,113.76,10.32Z"/><path class="cls-1" d="M118.08,38.52c2-6,7-14.26,13.63-16.32a10.12,10.12,0,0,1,7,.32c0-2,1-3.76,1-5.52,1.95-1.73,2.89-3.47,1.52-5.93,1.51-.56,1.78-1.68,1.27-3.37,1.08-.68,1.37-1.94,1.5-3.45a5.07,5.07,0,0,0,1-1.26,9.15,9.15,0,0,0,1.33-.66c.58.25,1,.29,1-.14.7.56,1,.7.8.06.82,1,1,1.33.42.36,1,1.67,1.07,2.13-.18.8,1.25,1.9,1.09,2.55-1,1.37,1.57,3.36,1.19,4.88-2.72,4.44,3.26,3.06,3,4-1.4,3.62,2.51,3.91,1.26,6.54-1.65,9.86,1,2,.29,4.75-.25,7.52-1.08,5.54-1.58,11.29-2.58,17.29,0,1-4-1-3-4-3,2-6,4-9,4.94a9.21,9.21,0,0,1-2.15.24,7.69,7.69,0,0,1-2.56-.43,6.64,6.64,0,0,1-2.23-1.35,6.75,6.75,0,0,1-1.57-2.3,8.41,8.41,0,0,1-.58-3.27,11.73,11.73,0,0,1,.07-1.33A9.68,9.68,0,0,1,118.08,38.52Zm4.87-.35c-1.16,3.34.84,6.34,2.84,5.34,9,0,9-11,11-18a16.4,16.4,0,0,0-12.74,9.28A12.87,12.87,0,0,0,123,38.17Z"/><path class="cls-1" d="M148.09,36.75c.92-2.31,2-4.48,2.4-4.35,2.32-4,3.85-5.78,4.51-1.74,2.8-6.94,4.73-8.11,11.08-4.54-2.11-5.17.21-5.61,6.4-4.56-1.69-1,.56-.55,2.82.6a5.38,5.38,0,0,1,2.49,4.35c0,12-15,11-22,15-3,2,4,5,8,5,5-1,10-4,15-6-4,4-7,9-13,9-8,1-16-4-17.21-11.69A1.84,1.84,0,0,1,148.09,36.75Zm23.66-8.44c-2.45-2.29-4.29-2.68-3.58.46-4.34-2.33-6.14-1.13-7,3.82-2.51-2.08-4.06-.41-5.53,2.17a9.22,9.22,0,0,1,5.7.25A11,11,0,0,1,166,33.48a10.37,10.37,0,0,1,4.24-3.06C170.54,29.25,171,28.53,171.75,28.31Z"/><path class="cls-1" d="M209.94,47c.13-.13.36-.52,2.91-5.26-2.38,4.17-1.39,1.45.7-5.79-2.08,6.12-1.27,3.13.37-2.58-1.26,4.39,0-.22.63-2.94-.39.84.41-3.91.13-3,.75-3.58.92-9.27-.91-6,1-5.53,1.55-7.85-1-6,2.71-2,2.37-.87.75,3.88,2.08-3.72,2.15-2,2.25,3.12.68-5.69,1-8.58.89-5.75.27-4.08.3-4.81.27-5.62,0-.19-.13-1.19-1-6,.42,3.68,0,2.41-1.16-2.57,1,4.15.77,2.31.6-2.57,1.12,4.34,1.73,5,2.9.75,0,4.82.48,5.71,2.72,1.67-1.31,4.71-.42,3.8,2.93.17-1.25,3.35,4.65.1,8-.12a21.37,21.37,0,0,0,3.78.67c1.57.28,3.13.54,3.1-.24,3,1.87,4.58,2.67,3.24,0,4.08,4.7,5.23,5.93,3,2,3.33,5.34,3.77,6.53,1.17,5.66,3.22,2.84,3.4,3.62,1.1,5.6,2.49.62,2.38,1.81.42,8,1.45-3.92,1-2.86-1.13,3,.82-3.34.31-2.84-1.54.55.54-1.74-.27-.59-1.75,1.64,0-.54-.7,0-1.7.73a33.43,33.43,0,0,1-3.36,1.78A35.52,35.52,0,0,1,234.86,33a28.76,28.76,0,0,1-3.7.71,27.58,27.58,0,0,1-3.74.2,26.36,26.36,0,0,1-3.69-.32c-1.15.06-3.19,1.21-3,0-2.92,2.65-7.65,9.41-3.3,5.07-4.71,5.88-6.21,7.64-.9,6.18-5.44,2.21-5.81,2.48-2.7,5.74-3.47-2.9-3.73-2.73-4,2,.06-4.8,0-5-1.29-1.63,1.26-3.51,1.31-3.68.78-3Zm9.6-20.06c.82-.93,2.93,2.42,4.61,3a13.79,13.79,0,0,0,5.27.84,18.24,18.24,0,0,0,2.73-.3,21.28,21.28,0,0,0,2.72-.7c1.36-.46,2.69-1,3.53-1.34,1.68-1.12,2.87-1.94,2.43-1,2.62-2.73,3.63-3.72,1.85-1.22,3.59-4.6,4.38-5.69,1.67-2.45,3.89-5.58,4.1-6.68-.28-6.29,4.27-2.43,4-3.36-1.45-7.1,4.42,2,3.73,1.18-1.66-3.36,3.76,3,2.83,2.22-1.64-1.34,2.47,2.31,1.44,1.84-1.76-.08,1.11,1.09,0,.73-1.78,0a20.74,20.74,0,0,1-3.7.39c-1.48.08-2.57.11-2-.38-4.45,1.51-9.43,4-6.25,2.88-4.56,2.35-5.49,3-3.28,4.84-2.72-.68-2.62.62-1.61,5.83-1.2-3.49-.58,1.06.38,5.84C218.76,22.21,219.11,24.37,219.54,26.94Z"/><path class="cls-1" d="M261.46,46.68a5.73,5.73,0,0,1-.67-3.17c-2,0-4,5-6,2a16.29,16.29,0,0,1-2.19-8.4,13.68,13.68,0,0,1,.57-4.18c.37-1.43,1-2.56,2.06-2.24.16-3,.81-4.44,3-3.07-.24-3.64,1.07-4.42,4.67-3.13-1.35-2.76-.41-3.45,2.62-2.79-.65-1.38.8-1.43,2.75-1a3.64,3.64,0,0,1,2.44,1.61c1.36.76,2,1.74,1.79,3.07,1.46,1.46,1.75,3.45,1.34,5.83a15.45,15.45,0,0,1-.78,6.38,33.09,33.09,0,0,1-6.29,11.9,25,25,0,0,1-5-2.31A2.92,2.92,0,0,1,261.46,46.68Zm-6-4.48a6.77,6.77,0,0,1,.31,2.31c4.66-2.66,10.22-7.55,11.92-12a6.7,6.7,0,0,0,.49-3.2,4.69,4.69,0,0,0-1.39-2.78c-1-1.18-1.85-1.68-1.91-1.12-1.27-.49-1.75.09-1.54,1.64-1.29.08-1.88,1.14-2.23,2.68a16.22,16.22,0,0,0-1.6,3.89c-1,2.83-2.11,5.64-3.8,7A11,11,0,0,0,255.48,42.2Z"/><path class="cls-1" d="M282.81,47.5c-.51-2.49-1.27-4.74-1.7-6.94a13.79,13.79,0,0,1-.13-5.9c.39-2.08.36-3.39-.44-3.51.77-3.16.76-5.15-.45-6.38a9.15,9.15,0,0,0,1.5-7c1.2.76,3.2.76,3.78-.13.92,1.89,1.42,2.89,1.83,4a15.29,15.29,0,0,1,.82,3.95c.77-3,2.65-4.27,6.28-4.87.61-.37,3-.11,6.07.86a14.24,14.24,0,0,1,2.95,5c-.31.19-.37.51-.21,1a.87.87,0,0,0-.48,1c-.84,1.06-1.84,1.06-2.33,1.4-1.51-1.34-2.51-2.34-2.49-2.28-2.27-1.31-3.52-1.56-3.84,0-2.68-.34-3.81.6-4.25,3.22-1.3-.47-1.92.74-2.38,3.3-.35-.4-.62.5-.89,2.2-1.2.88-1.25,2.76-.9,4.72s1.06,4,1.37,6a6.64,6.64,0,0,1-1.13,5.51,39.37,39.37,0,0,1-2.54-3.63A8.88,8.88,0,0,1,282.81,47.5Z"/><path class="cls-1" d="M304.15,43.22c.3-1.14.65-2.45,1.06-4l1.3-4.77q.35-1.26.69-2.55c1.3-1.71,1.44-5.07,1.85-7.49s1.24-3.94,2.37-1.78c2.7.84,2.92,2.29,1.28,4.55,1.06,1.13.25,3.07-.49,5.07a17.46,17.46,0,0,0-1.33,6c-.24.87-.47,1.74-.71,2.62q-1.05,3.95-2.06,7.89a4.13,4.13,0,0,1-.18.44,2.14,2.14,0,0,1-.32.53,1.76,1.76,0,0,1-.5.44,1.3,1.3,0,0,1-.7.18,2.92,2.92,0,0,1-1.35-.31,3.49,3.49,0,0,1-1-.78,3.18,3.18,0,0,1-.62-1,3,3,0,0,1-.2-1.06v-.26a.71.71,0,0,1,.05-.27Zm7.49-31.66a38.45,38.45,0,0,0,3.44-4c1.46-.82,2.71-1.07,2.85-.18,1.36,2.61.86,3.86-2,3.38.82,2.48-.68,3.23-3.37,3.22.19.51-.81.51-1.1-1.95C311.71,12,311.75,11.81,311.64,11.56Z"/><path class="cls-1" d="M316.93,45.6c1-2.27,2-4.6,3.16-6.87s2.47-4.51,3-3.81c2.48-4.84,4.17-6.75,6.91-3.77,1.13-6.26,3.32-7.64,10.2-7.62-6.88-1-9.13-.77-10.55,2.43-3.08-2.7-5.33-2.45-12.1-.59,5.93-4.52,8.49-6.08,12-9.63,1.95,2.14,4.88,2.29,11.4,2.1-1.71,1.67.18,3,3,4.95a16.09,16.09,0,0,0-1.29,6.56,14.69,14.69,0,0,0-6.41,6.06c-3.2.54-6,2.39-8.52,4.5a20.14,20.14,0,0,0-5.93,6.6c8,3,17,3,25-2-5,11-19,6-27.92,4.51a4.4,4.4,0,0,1-1.41-1.13,2.52,2.52,0,0,1-.57-1.62A4.18,4.18,0,0,1,316.93,45.6Z"/><path class="cls-1" d="M349.26,44.76c.53-4.25,2.53-8.25,3.36-12.18q.42-1.47.81-2.94a23,23,0,0,0,.63-2.88,4.08,4.08,0,0,0,.32-2.5c.45-.14.52-.27.11-.4.64-.24.81-.42.27-.55,1-.25,1.24-.41.44-.48,1.46-.2,1.85-.27.59-.19,2-.08,2.37,0,.47.14,2.52-.05,2.8.06.42.4,2.87-.07,3.07.11.32.7,3-.14,3.11.12.2,1,2.91-.49,2.91-.43,0,.23,2.88-.52,2.87-.46,0,.23,2.84-.63,2,2.48.2,3.28,1.59.07,1.36.94.2,2.37.69.31.46,1.19,0,2.23a37.65,37.65,0,0,0-1.73,7.52c-.91,5.48-1.8,10.81-7.13,10.81-1,0-1-2-.9-2.83Zm7.67-32.14c.55-.14.73-.63.66-1.45A3.55,3.55,0,0,0,359,9.54c.61.1,1-.06,1-.63.86.28,1.19.2.85-.4.73.6.93.67.46,0,.88.94,1.06,1.08.34.18,1.07,1.25,1.25,1.47.28.32,1.64,1.42,2,1.6.67.08,1.58,2.14,1.65,2.52-.19.77,1.84,2.49,1.81,2.77-.4.73,2.1,2.55,2.05,2.75-.37.59,2.26,2.73,2,3.11-1,1.32,2.37,2.47,2,2.76-1.18,1.32,2.31,1.93,1.86,2.12-1.07,1,2,1.35,1.59,1.42-.79.55,1.57.87,1.23.79-.56,0,1.3.48,1,.15-.34-.8.75.15.62-.08-.11-.59.68.18.66,0,.05-.4.61.1.63-.09.14-.54C357.31,13.21,357.35,13.05,356.93,12.62Z"/><path class="cls-1" d="M380.5,49.8c3.18.41,2.94-.18.29-3.29,1.74,2.8-1.5,2.27-6.63,1.67,1.95,1.37-4.18.94-6.41.33-1.85-.55-3.3-2-4-5a30.49,30.49,0,0,1-.15-6.07c.81-2.78,1.59-4.85.24-3.71,3.35-5.22,4.57-7.22,2.25-5.85,5.32-5.37,7.43-6.81,13.91-10-2,1.43.3,1.1,6.45.2-1.93,1.34,0,2.12,3,3.41-.67,1,0,2.11,1,3.32a13.53,13.53,0,0,0,.11,3.44c-.14,1.16-.43,2.88-.76,4.4a21,21,0,0,1-.91,3.2c-1.07,4-2.51,10.68-2.1,8.12-.78,5.18-.84,6.76,1,8.09-1.23,0-.74.61,2,3.47-3-2.39-3.71-2.67-4.35-.55-.34-2.42-.8-2.65-3.45-2.18,2.1-1.13,1.8-1.42-1.31-2.37C383.65,50.92,383.58,50.83,380.5,49.8Zm-12.72-10a4.94,4.94,0,0,0,1.41,3.78c.87.92,1.86,1.33,2.11,1,3.51.82,7.53,1,6.49-3.13,1.55.61,2.37-.13,2.92-1.43s.83-3.16,1.93-3.86a2.44,2.44,0,0,1,2.25-2.41c-.56-2.18-.22-3.52,1.8-3.36-1.57-2-1.52-2.89.79-2.74-2.64-1.78-3-2.53-.19-2.38-5.17-2.48-7.28-2.48-4.31.36-7.22-.87-9.36,1.1-11.61,8.62-1.2-3-2.5-.38-3.49,3.61C368.1,37.32,367.93,38.43,367.78,39.82Z"/></g></g></svg>