<svg xmlns="http://www.w3.org/2000/svg" viewBox="0 0 54.94 65.59"><defs><style>.cls-1{fill:#f1f2f2;}</style></defs><g id="Layer_2" data-name="Layer 2"><g id="Liquify"><path class="cls-1" d="M2.63,38c.08,1.88.55,1.23,3.11-2.92C3.61,38.53,4.44,36.86,7,31.64c-2.21,4.09-1,1,.67-3.51-1.43,2.83.06-3.6.09-5.65,0-1.89,0-3.08.14-1.46C7.38,14.5,5,5.1,7.44,13.93,4.93,4.66,2.27,2,7.38,7.05,2.26,2,1.26,1.07,5.7,3,1.25,1.05.87.69,3.79,0,.88.69,1.53,1.29,7.21,2.68,1.55,1.3,2.7,2.25,10.36,4.13c-7.61-1.87-2.55.49,7.17.15-8.66.4,3.86.47,7.34.93a33.2,33.2,0,0,1,3.53.93,7.48,7.48,0,0,1,2.5,1.13c2.93,1.23,4.85,2.56,3.22,4.33,4.84,1.69,6.14,3.81,4.52,8.93,2.72-1.57,2.84-.57,1.3,2.88,1.54-1.83,1.51-1.23.38,1.34.2.78-.93,3.38-2.36,5.76A25.07,25.07,0,0,1,25.69,41.23c-1,.22-2.09.52-3.27.87-2,.57-8.29.56-6.37,1.86-5.24-.4-10.09-1.53-6.76,1.4C4.22,42.64,3,42,3.06,45.14,2.25,41.79,2,41.62,0,43.76c1.56-2.47,1.78-2.82.55-3.66C2.09,40.41,2.25,40.23,2.63,38Zm10.9-2.59c-4,2.35-5.34,3.9-.74,3.58-3.92.83,3.81-.11,7-.67a54.62,54.62,0,0,0,6.74-2A35.86,35.86,0,0,0,32.79,33,13.55,13.55,0,0,0,37,27c.89-2.4,1.07-4.88-1.12-5.91C37,17.33,35.79,15,32,13.21c1-1,0-1.79-1.77-2.46a5,5,0,0,0-2.64-1.49C25.23,8.52,15.62,7,20.67,9.07,13.26,7.78,10.14,7.39,15.79,14c-6.37-4.93-3.11,1.48-1.85,6.27-.86-.68-.93.42-.78,2s0,4.15.56,4.63c-.44,1.64-1.73,4.07.16,3.3-1.79,2.6-3.13,4.52.18,3.24C10.66,36,9.44,37,13.53,35.42Z"/><path class="cls-1" d="M15.6,60.08c.13-.14.37-.53,2.91-5.27-2.38,4.17-1.38,1.45.71-5.79-2.09,6.12-1.28,3.13.36-2.58-1.26,4.39,0-.22.63-2.94-.39.84.42-3.91.13-3,.75-3.57.92-9.27-.91-6,1-5.53,1.55-7.85-1-6,2.71-2,2.37-.88.75,3.87,2.08-3.72,2.15-2,2.25,3.13.68-5.7,1-8.59.89-5.76.27-4.08.31-4.8.28-5.62,0-.19-.14-1.19-1-6,.42,3.68,0,2.41-1.16-2.57,1,4.15.77,2.31.6-2.57,1.12,4.34,1.73,5,2.9.75,0,4.82.48,5.71,2.72,1.67-1.31,4.71-.42,3.8,2.93.17-1.24,3.35,4.65.1,8-.12a21.08,21.08,0,0,0,3.77.67c1.57.29,3.13.54,3.11-.24,3,1.87,4.57,2.68,3.23,0,4.08,4.7,5.23,5.93,3,2,3.33,5.34,3.77,6.53,1.18,5.66,3.21,2.84,3.39,3.62,1.09,5.6,2.49.63,2.38,1.81.42,8,1.45-3.91,1-2.86-1.13,3,.82-3.34.32-2.84-1.53.55.53-1.74-.28-.58-1.76,1.64,0-.54-.7,0-1.7.73A34.25,34.25,0,0,1,44,44.94c-1.09.4-2.27.8-3.48,1.12a29.4,29.4,0,0,1-3.7.7,27.81,27.81,0,0,1-3.75.2,26.49,26.49,0,0,1-3.69-.32c-1.15.06-3.18,1.21-3,0-2.92,2.65-7.64,9.42-3.3,5.07-4.71,5.89-6.21,7.65-.9,6.19-5.44,2.2-5.8,2.48-2.7,5.74-3.46-2.9-3.73-2.73-4,2,.06-4.8,0-5-1.29-1.64,1.26-3.51,1.31-3.68.79-3ZM25.2,40c.82-.92,2.93,2.42,4.61,3.06a14,14,0,0,0,5.27.83,18.09,18.09,0,0,0,2.73-.3,21.28,21.28,0,0,0,2.72-.7c1.36-.46,2.69-1,3.53-1.34,1.68-1.12,2.88-1.93,2.43-1,2.63-2.73,3.64-3.72,1.86-1.22,3.58-4.59,4.37-5.69,1.67-2.45,3.88-5.58,4.09-6.68-.28-6.29,4.27-2.43,4-3.36-1.46-7.09,4.42,2,3.73,1.17-1.66-3.37,3.77,3,2.83,2.23-1.64-1.34,2.47,2.32,1.44,1.84-1.75-.08,1.1,1.09,0,.73-1.79,0a20.74,20.74,0,0,1-3.7.39c-1.48.08-2.56.11-2-.38-4.46,1.51-9.44,4-6.26,2.89-4.56,2.34-5.49,3-3.28,4.83-2.72-.68-2.62.63-1.61,5.84-1.2-3.5-.58,1.05.38,5.83C24.42,35.28,24.77,37.45,25.2,40Z"/></g></g></svg>