<svg viewBox="0 0 146 170" xmlns="http://www.w3.org/2000/svg" class="main-navigation__birmingham-logo">
          <defs>
              <linearGradient x1=".013%" y1="49.973%" x2="100.096%" y2="49.973%" id="mobile-4d26o9440a">
                  <stop stop-color="#B2D33E" offset="12%"/>
                  <stop stop-color="#B3D33D" offset="13%"/>
                  <stop stop-color="#D4DB22" offset="37%"/>
                  <stop stop-color="#ECE10F" offset="60%"/>
                  <stop stop-color="#FAE504" offset="82%"/>
                  <stop stop-color="#FFE600" offset="100%"/>
              </linearGradient>
              <linearGradient x1="0%" y1="50.108%" x2="99.99%" y2="50.108%" id="mobile-hx16yg7gyb">
                  <stop stop-color="#B2D33E" offset="0%"/>
                  <stop stop-color="#C4D730" offset="4%"/>
                  <stop stop-color="#DADD1E" offset="11%"/>
                  <stop stop-color="#EBE110" offset="19%"/>
                  <stop stop-color="#F6E407" offset="29%"/>
                  <stop stop-color="#FDE602" offset="43%"/>
                  <stop stop-color="#FFE600" offset="81%"/>
              </linearGradient>
              <linearGradient x1=".019%" y1="49.888%" x2="100.09%" y2="49.888%" id="mobile-cllu3exy7c">
                  <stop stop-color="#B2D33E" offset="16%"/>
                  <stop stop-color="#98D07B" offset="49%"/>
                  <stop stop-color="#7CCCBF" offset="84%"/>
              </linearGradient>
              <linearGradient x1="50.01%" y1="100%" x2="50.01%" y2=".007%" id="mobile-ypni7rp3ld">
                  <stop stop-color="#7CCCBF" offset="16%"/>
                  <stop stop-color="#61C9C8" offset="29%"/>
                  <stop stop-color="#37C5D6" offset="51%"/>
                  <stop stop-color="#19C2E0" offset="71%"/>
                  <stop stop-color="#07C1E6" offset="88%"/>
                  <stop stop-color="#00C0E8" offset="100%"/>
              </linearGradient>
              <linearGradient x1="15.699%" y1="93.995%" x2="49.269%" y2="34.47%" id="mobile-erzjdiwqge">
                  <stop stop-color="#00C0E8" offset="0%"/>
                  <stop stop-color="#00C0E8" offset="13%"/>
                  <stop stop-color="#00C0E8" offset="100%"/>
              </linearGradient>
              <linearGradient x1="24.995%" y1="23.571%" x2="58.992%" y2="84.933%" id="mobile-5h0sc4w1wf">
                  <stop stop-color="#00C0E8" offset="0%"/>
                  <stop stop-color="#4DC7CE" offset="32%"/>
                  <stop stop-color="#7CCCBF" offset="53%"/>
                  <stop stop-color="#A1D167" offset="80%"/>
                  <stop stop-color="#B2D33E" offset="93%"/>
              </linearGradient>
          </defs>
          <g fill="none" fill-rule="evenodd">
              <path d="M69.283 121.494v-8.18c0-.906-.528-1.392-1.567-1.392-1.038 0-1.59.486-1.59 1.391v8.18c0 .906.528 1.392 1.59 1.392 1.063 0 1.567-.486 1.567-1.391m2.91.641c0 2.19-1.74 3.449-4.477 3.449-2.736 0-4.5-1.26-4.5-3.449v-9.463c0-2.19 1.746-3.449 4.5-3.449 2.755 0 4.477 1.26 4.477 3.449v9.463zM82.808 125.344h-8.773l-.042-1.26a6.797 6.797 0 0 1 0-.683c0-2.999 1.8-4.798 3.9-6.55.973-.815 1.8-1.654 1.8-2.962v-.642c0-.923-.353-1.457-1.121-1.457h-.354c-.75 0-1.147.51-1.147 1.373v1.386l-2.826-.33v-1.8c0-2.056 1.5-3.226 4.039-3.226h.324c2.58 0 4.032 1.26 4.032 3.689v.93c0 2.32-.75 3.472-3.372 5.463a5.122 5.122 0 0 0-2.293 3.49h5.833v2.579zM93.477 125.344h-8.803l-.042-1.26a6.797 6.797 0 0 1 0-.683c0-2.999 1.8-4.798 3.906-6.55.973-.815 1.8-1.654 1.8-2.962v-.642c0-.923-.353-1.457-1.127-1.457h-.402c-.75 0-1.147.51-1.147 1.373v1.386l-2.82-.33v-1.8c0-2.056 1.5-3.226 4.033-3.226h.354c2.58 0 4.038 1.26 4.038 3.689v.93c0 2.32-.75 3.472-3.378 5.463a5.122 5.122 0 0 0-2.293 3.49h5.869l.012 2.579zM61.44 125.344h-8.797l-.042-1.26a6.797 6.797 0 0 1 0-.683c0-2.999 1.8-4.798 3.9-6.55.973-.815 1.8-1.654 1.8-2.962v-.642c0-.923-.353-1.457-1.122-1.457h-.354c-.75 0-1.146.51-1.146 1.373v1.386l-2.874-.306v-1.8c0-2.056 1.5-3.226 4.038-3.226h.354c2.58 0 4.033 1.26 4.033 3.689v.93c0 2.32-.75 3.472-3.372 5.463a5.122 5.122 0 0 0-2.293 3.49h5.863l.012 2.555zM61.752 147.624c0 1.86-1.092 2.789-3.042 2.789-1.242 0-2.647-.486-2.767-1.937h1.368c.169.78.787.911 1.483.911a1.399 1.399 0 0 0 1.59-1.583v-.948a2.106 2.106 0 0 1-1.854 1.092c-1.963 0-2.773-1.487-2.773-3.263 0-1.667 1.038-3.106 2.797-3.106a1.938 1.938 0 0 1 1.8 1.02v-.852h1.368l.03 5.877zm-1.368-2.915c0-1.067-.474-2.05-1.662-2.05s-1.627 1.127-1.627 2.158c0 1.032.493 2.051 1.627 2.051s1.662-1.103 1.662-2.159M68.82 141.747h1.297v.863h.036a2.064 2.064 0 0 1 1.902-1.031 1.752 1.752 0 0 1 1.734 1.031 2.239 2.239 0 0 1 1.938-1.031c1.308 0 2.07.6 2.07 2.087v4.282h-1.362v-3.599c0-.983-.06-1.667-1.128-1.667-.918 0-1.314.6-1.314 1.655v3.635h-1.386v-3.982c0-.852-.264-1.308-1.092-1.308a1.434 1.434 0 0 0-1.35 1.607v3.683h-1.368l.024-6.225zM79.748 145.201c0 .972.528 1.835 1.662 1.835a1.428 1.428 0 0 0 1.506-1.031h1.296a2.712 2.712 0 0 1-2.802 2.11c-1.938 0-3-1.355-3-3.262 0-1.763 1.146-3.274 3-3.274 1.95 0 3.15 1.763 2.922 3.598l-4.584.024zm3.186-.9a1.595 1.595 0 1 0-3.186 0h3.186zM67.975 143.336c-.036-1.266-1.285-1.745-2.473-1.745-1.368 0-2.718.467-2.814 2.063h1.362c.06-.672.6-.984 1.368-.984.546 0 1.278.132 1.278.84 0 .803-.876.696-1.854.875-1.152.132-2.4.384-2.4 1.932 0 1.2 1.002 1.799 2.118 1.799a3.17 3.17 0 0 0 2.142-.756c.108.564.504.6 1.056.6h.199l.018-4.624zm-1.369 2.525c0 .863-.936 1.2-1.53 1.2-.48 0-1.26-.18-1.26-.792 0-.72.528-.936 1.116-1.032a4.85 4.85 0 0 0 1.674-.372v.996zM88.364 144.283c-1.002-.227-2.01-.323-2.01-.99 0-.539.732-.635 1.128-.635.6 0 1.134.18 1.255.828h1.416c-.162-1.38-1.314-1.907-2.58-1.907-1.123 0-2.575.42-2.575 1.799 0 1.253.978 1.613 1.98 1.83 1.002.215 1.98.31 2.017 1.03.036.72-.859.81-1.375.81-.708 0-1.29-.27-1.386-1.02h-1.368c.054 1.422 1.2 2.1 2.73 2.1 1.279 0 2.76-.54 2.76-2.01 0-1.199-1.001-1.583-1.992-1.799M38.89 135.647a1.302 1.302 0 0 0-1.41-1.163c-.702 0-1.693.372-1.693 2.255 0 1.031.45 2.117 1.633 2.117a1.458 1.458 0 0 0 1.47-1.41h1.362a2.656 2.656 0 0 1-2.832 2.49c-1.933 0-3-1.38-3-3.197 0-1.817 1.02-3.335 3.048-3.335 1.434 0 2.658.72 2.784 2.243H38.89zM40.732 136.667c0-1.895 1.134-3.263 3.12-3.263 1.986 0 3.12 1.368 3.12 3.263 0 1.895-1.14 3.268-3.12 3.268-1.98 0-3.12-1.361-3.12-3.268m4.878 0c0-1.068-.54-2.183-1.758-2.183s-1.758 1.115-1.758 2.183c0 1.067.54 2.189 1.758 2.189s1.752-1.11 1.752-2.19M47.465 133.572h1.29v.864h.036a2.052 2.052 0 0 1 1.896-1.032 1.752 1.752 0 0 1 1.734 1.032 2.233 2.233 0 0 1 1.938-1.032c1.302 0 2.064.6 2.064 2.087v4.277h-1.362v-3.599c0-.983-.06-1.667-1.122-1.667-.918 0-1.314.6-1.314 1.655v3.629h-1.362v-3.977c0-.851-.264-1.307-1.086-1.307a1.434 1.434 0 0 0-1.35 1.607v3.677h-1.362v-6.214zM57.197 133.572h1.29v.864h.037a2.052 2.052 0 0 1 1.896-1.032 1.752 1.752 0 0 1 1.734 1.032 2.233 2.233 0 0 1 1.938-1.032c1.302 0 2.064.6 2.064 2.087v4.277h-1.35v-3.599c0-.983-.06-1.667-1.122-1.667-.918 0-1.314.6-1.314 1.655v3.629h-1.362v-3.977c0-.851-.264-1.307-1.086-1.307a1.434 1.434 0 0 0-1.35 1.607v3.677h-1.375v-6.214zM66.666 136.667c0-1.895 1.14-3.263 3.12-3.263 1.98 0 3.121 1.368 3.121 3.263 0 1.895-1.134 3.268-3.12 3.268-1.986 0-3.12-1.361-3.12-3.268m4.878 0c0-1.068-.54-2.183-1.758-2.183s-1.758 1.115-1.758 2.183c0 1.067.54 2.189 1.758 2.189s1.758-1.11 1.758-2.19M73.423 133.572h1.29v.912a2.215 2.215 0 0 1 1.926-1.104c1.338 0 2.185.72 2.185 2.111v4.253H77.46v-3.893c0-.971-.408-1.391-1.2-1.391a1.513 1.513 0 0 0-1.494 1.631v3.653h-1.362l.018-6.172zM79.082 133.572h1.446l1.212 4.63h.018l1.164-4.63h1.374l1.11 4.63h.024l1.254-4.63h1.386l-1.938 6.196h-1.398l-1.146-4.6h-.024l-1.134 4.6h-1.434zM89.259 137.027a1.643 1.643 0 0 0 1.662 1.829 1.434 1.434 0 0 0 1.506-1.026h1.29a2.706 2.706 0 0 1-2.796 2.105c-1.938 0-3-1.349-3-3.256 0-1.763 1.146-3.275 3-3.275 1.95 0 3.144 1.764 2.916 3.599l-4.578.024zm3.18-.9a1.59 1.59 0 0 0-3.18 0h3.18zM100.618 131.941h1.362v7.821h-1.362zM102.868 133.572v-1.631h1.362v1.631h1.23v1.02h-1.23v3.304c0 .564.048.852.654.852.201.01.403-.006.6-.048v1.038c-.3 0-.6.071-.882.071-1.422 0-1.686-.551-1.71-1.583v-4.672l-.024.018zM106.24 131.941h1.362v2.447a2.16 2.16 0 0 1 1.854-.984c1.339 0 2.185.72 2.185 2.105v4.259h-1.362v-3.899c0-.971-.402-1.391-1.2-1.391a1.513 1.513 0 0 0-1.495 1.631v3.659h-1.362l.018-7.827zM99.73 135.144c-.036-1.26-1.285-1.74-2.473-1.74-1.362 0-2.712.468-2.808 2.057h1.362c.06-.671.6-.983 1.362-.983.552 0 1.278.132 1.278.84 0 .803-.87.695-1.854.875-1.146.132-2.4.384-2.4 1.931 0 1.2 1.002 1.8 2.118 1.8a3.163 3.163 0 0 0 2.136-.756c.108.564.504.6 1.05.6h.205l.024-4.624zm-1.363 2.536c0 .864-.93 1.2-1.53 1.2-.474 0-1.254-.18-1.254-.792 0-.72.528-.935 1.11-1.031a4.85 4.85 0 0 0 1.674-.372v.995zM111.665 132.439s0-.03.048-.09 1.8-5.122 1.8-5.122h-.102a.912.912 0 0 0-.858.552l-.876 2.525-.87-2.525a.918.918 0 0 0-.864-.552h-.078l1.764 5.122c0 .06.036.09.048.09M108.916 127.773a.9.9 0 0 0-.822-.552h-.126l.99 2.8-2.466-2.23a2.209 2.209 0 0 0-1.668-.552l5.635 5.11c.054.054.084.036.054-.036l-1.603-4.546M114.425 127.773a.9.9 0 0 1 .822-.552h.126l-.984 2.8 2.46-2.23a2.227 2.227 0 0 1 1.674-.552l-5.64 5.11c-.06.054-.084.036-.06-.036l1.602-4.546M22.634 99.933v4.864h1.524c1.08 0 1.74-.6 1.74-1.877v-1.35c0-1.127-.66-1.637-1.74-1.637h-1.524zm0-6.279v4.102h.972c1.2 0 1.698-.665 1.698-1.799v-.486c0-1.235-.486-1.799-1.698-1.799l-.972-.018zm-3 13.536V91.267h3.99c2.869 0 4.699 1.128 4.699 3.737v1.02a2.53 2.53 0 0 1-1.59 2.398c1.524.438 2.184 1.433 2.184 2.999v2.009c0 2.56-1.854 3.76-4.74 3.76h-4.543zM30.681 91.267h3.018v15.917h-3.018zM41.566 97.06c0 1.284-.6 1.884-1.698 1.884h-1.152v-5.11h1.2c1.062 0 1.68.6 1.68 1.943l-.03 1.284zm3 .51v-1.967c0-2.717-1.32-4.336-4.758-4.336h-4.11v15.923h3v-5.685h1.02l2.796 5.685h2.19v-2.237l-2.1-3.952c1.368-.6 1.938-1.8 1.938-3.43M52.229 102.236l-2.706-5.727.042 1.68v9.001H46.72V91.267h3.199l3.33 7.209 3.348-7.209h3.175v15.923h-2.845v-9.002l.048-1.68-2.712 5.728zM61.77 91.267h3.018v15.917H61.77zM66.786 107.19V91.267h2.449l4.59 9.002.462 1.17-.024-1.26v-8.912h2.646v15.923h-2.448l-4.518-8.936-.552-1.391.042 1.35v8.977zM86.714 107.19l-.462-.846a4.268 4.268 0 0 1-3.09 1.062c-2.604 0-4.254-1.26-4.254-3.448v-9.332c0-2.19 1.854-3.449 4.8-3.449 2.778 0 4.566 1.26 4.566 3.449v2.399h-2.82v-1.848c0-.971-.66-1.415-1.746-1.415-1.2 0-1.764.444-1.764 1.415v8.21c0 .99.552 1.434 1.764 1.434 1.086 0 1.746-.444 1.746-1.433v-1.89h-1.746v-2.542h4.566v8.24l-1.56-.006zM90.255 107.19V91.267h3.018v7.689H96.8v-7.689h3v15.923h-3v-5.673h-3.528v5.673zM108.052 101.499h-2.922l1.47-6.783 1.452 6.783zm3.6 3.268-3.288-13.5h-3.57l-3.3 13.44v2.483h2.4l.684-3.232h3.966l.708 3.232h2.4v-2.423zM123.276 91.267l-3.355 7.209-3.33-7.209H113.4v15.923h2.844v-9.002l-.048-1.68 2.712 5.728h2.029l2.712-5.727-.042 1.68v9.001h2.844V91.267z" fill="#1C2C3B" fill-rule="nonzero"/>
              <path d="M29.547 47.031a2.176 2.176 0 0 0 .6 2.5l5.13 4.199 3.6 2.957 28.36 23.353 6.144 5.122 5.4 4.462h6.775l-4.29-3.532-6.157-5.068-32.403-26.682-7.2-5.944.701-2.219-4.452-.467h-.21a2.172 2.172 0 0 0-1.998 1.325" fill="url(#mobile-4d26o9440a)" fill-rule="nonzero"/>
              <path d="m81.53 84.274 2.604 2.123 27.17 3.203h7.075l.144-1.331a2.152 2.152 0 0 0-1.884-2.4l-38.71-4.563 3.6 2.968z" fill="url(#mobile-hx16yg7gyb)" fill-rule="nonzero"/>
              <path d="m111.947 108.677-.264 2.4-2.91-2.4h-6.763l10.009 8.27a2.167 2.167 0 0 0 2.172.33 2.147 2.147 0 0 0 1.326-1.763l.756-6.819-4.326-.018z" fill="#FFE600" fill-rule="nonzero"/>
              <g fill-rule="nonzero">
                  <path d="M6.56 27.87c6.457.684 15.904.575 28.817 1.943a2.621 2.621 0 0 1 2.314 2.738c-.071 1.38-1.165 2.58-2.584 2.486-15.442-1.402-25.39-2.338-29.844-2.81L6.56 27.87z" fill="url(#mobile-cllu3exy7c)" transform="translate(37.15 19.31)"/>
                  <path d="M35.073 34.936c-.78 0-1.519-.348-2.016-.948L8.298 4.308A2.622 2.622 0 0 1 9.868.044a2.625 2.625 0 0 1 2.463.905l24.758 29.687a2.626 2.626 0 0 1-2.016 4.3z" fill="url(#mobile-ypni7rp3ld)" transform="translate(37.15 19.31)"/>
                  <path d="M12.595 3.39a2.623 2.623 0 0 0-5.016-1.535L0 28.65l3.84 2.813L12.596 3.39z" fill="url(#mobile-erzjdiwqge)" transform="translate(37.15 19.31)"/>
              </g>
              <path d="M28.113 77.233a2.164 2.164 0 0 0 1.8 2.777l41.068 4.84-3.775-3.137-2.304-1.949-31.899-3.736 5.503-17.992-2.113-1.763-1.47-1.2-6.81 22.16z" fill="url(#mobile-5h0sc4w1wf)" fill-rule="nonzero"/>
              <path d="M0 0h146v170H0z"/>
          </g>
      </svg>