<svg xmlns="http://www.w3.org/2000/svg" xmlns:xlink="http://www.w3.org/1999/xlink" xmlns:serif="http://www.serif.com/" width="100%" height="100%" viewBox="0 0 1550 1084" xml:space="preserve" style="fill-rule:evenodd;clip-rule:evenodd;stroke-linejoin:round;stroke-miterlimit:2;">    <g transform="matrix(4.16667,0,0,4.16667,0,0)">        <g>            <path d="M12.209,122.821L12.209,91.118L0.436,91.118C0.436,91.118 0.401,121.478 0.401,122.781C0.401,132.899 7.377,140.108 17.616,140.108L44.291,140.108L44.291,128.486L17.363,128.486C11.746,128.486 12.209,122.821 12.209,122.821Z" style="fill:rgb(5,71,151);fill-rule:nonzero;"></path>            <rect x="49.508" y="128.483" width="46.168" height="11.686" style="fill:rgb(5,71,151);fill-rule:nonzero;"></rect>            <path d="M144.749,109.143C144.749,99.367 137.36,91.188 127.182,91.188L100.985,91.188L100.985,140.239L111.47,140.239L111.47,102.904L127.004,102.904C133.365,102.904 133.379,109.028 133.379,109.028L133.378,140.239L144.78,140.239C144.749,110.589 144.749,110.312 144.749,109.143Z" style="fill:rgb(5,71,151);fill-rule:nonzero;"></path>            <path d="M71.285,114.473C73.86,115.558 76.639,116.201 76.639,116.201C81.921,117.318 85.966,116.038 87.881,113.407C89.835,110.73 87.881,105.838 87.881,105.838C85.761,106.918 81.333,110.331 75.318,112.025C69.31,113.724 65.488,110.226 59.807,108.419C54.123,106.623 50.688,107.785 48.716,110.331C46.749,112.881 48.716,118.008 48.716,118.008C48.716,118.008 51.038,115.727 57.202,112.983C62.357,110.688 68.585,113.33 71.285,114.473Z" style="fill:rgb(6,160,220);fill-rule:nonzero;"></path>            <path d="M78.689,120.742C81.261,121.829 84.041,122.471 84.041,122.471C89.333,123.592 93.375,122.313 95.282,119.684C97.237,117.008 95.282,112.114 95.282,112.114C93.166,113.195 88.734,116.606 82.721,118.303C76.717,120.001 72.889,116.501 67.208,114.697C61.528,112.894 58.093,114.059 56.121,116.606C54.155,119.156 56.121,124.28 56.121,124.28C56.121,124.28 58.441,121.996 64.6,119.256C69.768,116.959 75.987,119.605 78.689,120.742Z" style="fill:rgb(6,160,220);fill-rule:nonzero;"></path>            <rect x="49.497" y="91.208" width="46.178" height="11.685" style="fill:rgb(5,71,151);fill-rule:nonzero;"></rect>            <path d="M14.349,158.412L3.738,158.412C3.738,160.19 4.073,161.24 4.975,162.147C5.374,162.583 5.843,162.884 6.323,163.02C6.937,163.204 8.248,163.306 9.263,163.306L14.349,163.306L14.349,166.11L8.274,166.11C5.734,166.11 4.506,165.848 3.307,165.083C1.2,163.822 0,161.051 0,157.66C0,151.614 3.195,148.423 9.263,148.423L14.349,148.423L14.349,151.221L9.764,151.221C7.299,151.221 6.143,151.551 5.153,152.504C4.434,153.226 3.993,154.203 3.738,155.637L14.349,155.637L14.349,158.412Z" style="fill:rgb(6,160,220);fill-rule:nonzero;"></path>            <path d="M29.739,148.423L33.254,148.423L33.254,166.11L25.519,166.11C24.768,166.11 24.072,166.11 23.459,166.066C21.428,165.923 19.942,165.162 18.993,163.708C18.23,162.588 17.982,161.392 17.982,158.886L17.982,148.423L21.496,148.423L21.496,158.726C21.496,160.559 21.612,161.241 22.005,161.932C22.541,162.91 23.71,163.312 25.853,163.312L29.739,163.312L29.739,148.423Z" style="fill:rgb(6,160,220);fill-rule:nonzero;"></path>            <path d="M42.552,148.423C45.532,148.423 46.844,148.747 48.001,149.807C49.049,150.731 49.42,151.99 49.42,154.71L49.42,156.415L46.113,156.415L46.113,154.71C46.113,152.14 45.425,151.405 42.946,151.405L41.534,151.405L41.534,166.11L38.021,166.11L38.021,148.423L42.552,148.423Z" style="fill:rgb(6,160,220);fill-rule:nonzero;"></path>            <path d="M60.323,163.386C63.947,163.386 65.801,161.394 65.801,157.437C65.801,153.437 63.846,151.156 60.388,151.156C56.9,151.156 55.018,153.366 55.018,157.437C55.018,161.357 56.838,163.386 60.323,163.386ZM60.612,148.237C66.28,148.237 69.435,151.517 69.435,157.363C69.435,162.991 66.098,166.291 60.431,166.291C54.62,166.291 51.387,163.2 51.387,157.658C51.387,151.614 54.686,148.237 60.612,148.237Z" style="fill:rgb(6,160,220);fill-rule:nonzero;"></path>            <path d="M76.483,163.311L79.855,163.311C81.164,163.311 82.298,163.13 83.079,162.807C84.58,162.144 85.34,160.19 85.34,157.031C85.34,152.887 83.782,151.218 79.855,151.218L76.483,151.218L76.483,163.311ZM80.243,148.423C81.078,148.423 81.851,148.462 82.543,148.505C84.352,148.642 85.699,149.298 86.866,150.569C87.436,151.196 87.84,151.846 88.128,152.455C88.639,153.684 88.977,155.632 88.977,157.255C88.977,160.26 87.957,163.02 86.321,164.549C85.767,165.016 85.122,165.414 84.398,165.671C83.332,166.037 82.543,166.11 79.855,166.11L76.483,166.11L76.483,171.733L72.96,171.733L72.96,148.423L80.243,148.423Z" style="fill:rgb(6,160,220);fill-rule:nonzero;"></path>            <path d="M105.599,158.412L94.988,158.412C94.988,160.19 95.327,161.24 96.218,162.147C96.625,162.583 97.095,162.884 97.574,163.02C98.19,163.204 99.492,163.306 100.511,163.306L105.599,163.306L105.599,166.11L99.525,166.11C96.982,166.11 95.765,165.848 94.557,165.083C92.446,163.822 91.25,161.051 91.25,157.66C91.25,151.614 94.445,148.423 100.511,148.423L105.599,148.423L105.599,151.221L101.026,151.221C98.554,151.221 97.395,151.551 96.404,152.504C95.684,153.226 95.243,154.203 94.988,155.637L105.599,155.637L105.599,158.412Z" style="fill:rgb(6,160,220);fill-rule:nonzero;"></path>            <path d="M115.542,158.114C113.002,158.114 112.061,158.817 112.061,160.771C112.061,162.622 113.035,163.311 115.542,163.311L121.398,163.311L121.398,158.114L115.542,158.114ZM121.398,154.886C121.398,151.778 120.811,151.218 117.422,151.218L109.115,151.218L109.115,148.426L118.153,148.426C121.353,148.426 122.757,148.876 123.784,150.058C124.649,151.079 124.918,152.239 124.918,154.914L124.918,166.112L115.967,166.112C113.196,166.112 112.928,166.067 111.733,165.704C109.665,165.06 108.431,163.232 108.431,160.771C108.431,159.282 108.887,157.946 109.704,156.964C110.713,155.721 112.099,155.336 115.113,155.336L121.398,155.336L121.398,154.886Z" style="fill:rgb(6,160,220);fill-rule:nonzero;"></path>            <path d="M137.582,148.423C142.77,148.423 144.727,150.391 144.727,155.583L144.727,166.11L141.248,166.11L141.248,155.935C141.248,152.435 140.194,151.217 137.041,151.217L132.927,151.217L132.927,166.11L129.406,166.11L129.406,148.423L137.582,148.423Z" style="fill:rgb(6,160,220);fill-rule:nonzero;"></path>            <path d="M7.99,186.991C5.251,186.991 4.227,187.748 4.227,189.858C4.227,191.858 5.297,192.601 7.99,192.601L14.304,192.601L14.304,186.991L7.99,186.991ZM14.304,183.507C14.304,180.15 13.673,179.548 10.037,179.548L1.055,179.548L1.055,176.533L10.82,176.533C14.253,176.533 15.798,177.022 16.9,178.295C17.833,179.401 18.099,180.649 18.099,183.536L18.099,195.623L8.467,195.623C5.435,195.623 5.163,195.574 3.881,195.184C1.64,194.49 0.32,192.513 0.32,189.858C0.32,188.248 0.826,186.812 1.684,185.748C2.785,184.407 4.264,183.991 7.52,183.991L14.304,183.991L14.304,183.507Z" style="fill:rgb(6,160,220);fill-rule:nonzero;"></path>            <path d="M31.351,179.548C27.125,179.548 25.545,181.398 25.545,186.325C25.545,190.716 27.206,192.599 31.121,192.599L35.186,192.599L35.186,179.548L31.351,179.548ZM38.991,201.691L35.186,201.691L35.186,195.623L28.959,195.623C27.125,195.574 25.787,195.184 24.732,194.441C22.693,192.988 21.647,190.162 21.647,186.288C21.647,182.289 22.726,179.548 24.924,178.026C26.379,177.043 28.582,176.533 31.641,176.533L38.991,176.533L38.991,201.691Z" style="fill:rgb(6,160,220);fill-rule:nonzero;"></path>            <path d="M56.512,176.531L60.306,176.531L60.306,195.62L51.958,195.62C51.138,195.62 50.395,195.62 49.723,195.574C47.533,195.419 45.928,194.599 44.902,193.03C44.082,191.819 43.8,190.529 43.8,187.824L43.8,176.531L47.615,176.531L47.615,187.655C47.615,189.631 47.723,190.366 48.157,191.115C48.741,192.167 49.998,192.601 52.319,192.601L56.512,192.601L56.512,176.531Z" style="fill:rgb(6,160,220);fill-rule:nonzero;"></path>            <path d="M71.988,186.991C69.259,186.991 68.219,187.748 68.219,189.858C68.219,191.858 69.289,192.601 71.988,192.601L78.301,192.601L78.301,186.991L71.988,186.991ZM78.301,183.507C78.301,180.15 77.679,179.548 74.029,179.548L65.053,179.548L65.053,176.533L74.803,176.533C78.256,176.533 79.785,177.022 80.882,178.295C81.822,179.401 82.105,180.649 82.105,183.536L82.105,195.623L72.466,195.623C69.44,195.623 69.155,195.574 67.873,195.184C65.642,194.49 64.308,192.513 64.308,189.858C64.308,188.248 64.812,186.812 65.682,185.748C66.772,184.407 68.264,183.991 71.524,183.991L78.301,183.991L78.301,183.507Z" style="fill:rgb(6,160,220);fill-rule:nonzero;"></path>            <path d="M88.565,169.479L92.329,169.479L92.329,176.53L97.892,176.53L97.892,179.55L92.329,179.55L92.329,189.593C92.329,191.15 92.435,191.694 92.905,192.093C93.348,192.479 94.009,192.599 95.669,192.599L97.892,192.599L97.892,195.623L94.243,195.623C91.733,195.623 90.797,195.376 89.857,194.49C89.394,194.048 89.083,193.585 88.916,193.074C88.713,192.401 88.565,190.987 88.565,189.896L88.565,179.55L84.917,179.55L84.917,176.53L88.565,176.53L88.565,169.479Z" style="fill:rgb(6,160,220);fill-rule:nonzero;"></path>            <path d="M101.419,173.431L105.222,173.431L105.222,169.485L101.419,169.485L101.419,173.431ZM101.419,195.62L105.214,195.62L105.214,176.531L101.419,176.531L101.419,195.62Z" style="fill:rgb(6,160,220);fill-rule:nonzero;"></path>            <path d="M124.782,179.548L118.701,179.548C114.547,179.548 112.946,181.398 112.946,186.086C112.946,188.015 113.212,189.35 113.801,190.49C114.668,192.062 115.927,192.599 118.701,192.599L124.782,192.599L124.782,195.625L118.701,195.625C114.737,195.625 112.946,195.073 111.414,193.419C109.92,191.781 109.016,189.195 109.016,186.45C109.016,183.442 109.92,180.859 111.516,179.075C113.262,177.242 115.175,176.533 118.701,176.533L124.782,176.533L124.782,179.548Z" style="fill:rgb(6,160,220);fill-rule:nonzero;"></path>            <path d="M144.058,179.548L135.444,179.548C133.359,179.548 132.932,179.586 132.423,179.793C131.717,180.015 131.283,180.961 131.283,182.209C131.283,183.039 131.478,183.629 131.828,183.992C132.299,184.407 133.048,184.525 135.081,184.525L137.672,184.525L139.742,184.576C141.906,184.611 142.695,184.809 143.513,185.633C144.333,186.45 144.849,188.061 144.849,189.896C144.849,191.781 144.375,193.264 143.436,194.292C142.958,194.803 142.344,195.184 141.589,195.341C140.653,195.574 140.189,195.625 137.672,195.625L127.596,195.625L127.596,192.599L136.772,192.599C138.1,192.599 138.97,192.57 139.517,192.486C140.529,192.324 140.918,191.668 140.918,190.162C140.918,189.264 140.683,188.615 140.26,188.287C139.828,188.015 139.396,187.937 137.012,187.937L135.444,187.937C132.259,187.937 131.561,187.898 130.539,187.56C128.687,186.958 127.366,184.727 127.366,182.184C127.366,180.491 127.953,178.963 128.925,177.989C129.983,176.96 131.561,176.533 134.463,176.533L144.058,176.533L144.058,179.548Z" style="fill:rgb(6,160,220);fill-rule:nonzero;"></path>            <rect x="165.423" y="91.118" width="0.972" height="104.529" style="fill:rgb(0,118,178);fill-rule:nonzero;"></rect>            <path d="M195.248,179.249L192.826,179.249L192.826,183.794L195.248,183.794C196.716,183.794 198.257,183.094 198.257,181.505C198.257,179.98 196.716,179.249 195.248,179.249ZM201.155,195.647L194.845,187.67L192.826,187.67L192.826,195.647L187.358,195.647L187.358,175.371L196.092,175.371C200.092,175.371 203.65,177.693 203.65,181.505C203.65,183.889 202.036,185.795 200.055,186.59L207.503,195.647L201.155,195.647Z" style="fill:rgb(0,118,178);fill-rule:nonzero;"></path>            <path d="M219.795,179.217C216.272,179.217 212.97,181.696 212.97,185.478C212.97,189.291 216.272,191.77 219.795,191.77C223.317,191.77 226.656,189.291 226.656,185.478C226.656,181.696 223.317,179.217 219.795,179.217ZM219.795,196.124C213.337,196.124 207.209,192.025 207.209,185.478C207.209,178.994 213.337,174.895 219.795,174.895C226.289,174.895 232.417,178.994 232.417,185.478C232.417,192.025 226.289,196.124 219.795,196.124Z" style="fill:rgb(0,118,178);fill-rule:nonzero;"></path>            <path d="M258.321,195.647L257.808,190.308C257.588,188.401 257.403,186.559 257.367,184.429L257.294,184.429C256.413,186.367 255.422,188.02 254.321,189.927L250.872,195.742L248.598,195.742L245.148,189.959C243.937,187.925 242.947,186.272 242.14,184.461L242.066,184.461C241.993,186.622 241.847,188.464 241.662,190.34L241.149,195.647L235.682,195.647L237.699,175.371L242.323,175.371L246.506,182.395C247.644,184.302 248.854,186.367 249.771,188.21L249.809,188.21C250.689,186.367 251.827,184.333 253.001,182.363L257.147,175.371L261.808,175.371L263.861,195.647L258.321,195.647Z" style="fill:rgb(0,118,178);fill-rule:nonzero;"></path>            <path d="M278.539,185.414C278.025,184.143 277.585,182.777 277.108,181.156L277.034,181.156C276.595,182.808 276.117,184.175 275.641,185.414L274.612,187.702L279.565,187.702L278.539,185.414ZM282.575,195.647L280.703,191.42L273.438,191.42L271.602,195.647L266.026,195.647L275.236,175.213L279.162,175.213L288.373,195.647L282.575,195.647Z" style="fill:rgb(0,118,178);fill-rule:nonzero;"></path>            <path d="M298.645,195.647L298.645,194.407C303.417,190.181 308.003,185 308.003,182.077C308.003,179.98 306.499,178.962 304.48,178.962C302.72,178.962 301.142,179.471 299.711,180.266L299.27,176.166C300.737,175.404 302.645,174.895 304.884,174.895C309.727,174.895 313.287,177.215 313.287,181.696C313.287,185 309.765,189.387 307.196,191.77L314.498,191.77L314.498,195.647L298.645,195.647Z" style="fill:rgb(0,118,178);fill-rule:nonzero;"></path>            <path d="M326.018,178.867C323.927,178.867 322.165,181.029 322.165,185.478C322.165,190.023 323.927,192.088 326.018,192.088C328.11,192.088 329.907,190.054 329.907,185.478C329.907,180.996 328.11,178.867 326.018,178.867ZM326.018,196.124C321.247,196.124 317.064,192.946 317.064,185.478C317.064,178.105 321.247,174.895 326.018,174.895C330.752,174.895 335.008,178.105 335.008,185.478C335.008,192.946 330.752,196.124 326.018,196.124Z" style="fill:rgb(0,118,178);fill-rule:nonzero;"></path>            <path d="M337.612,195.647L337.612,194.407C342.383,190.181 346.969,185 346.969,182.077C346.969,179.98 345.465,178.962 343.446,178.962C341.685,178.962 340.107,179.471 338.677,180.266L338.236,176.166C339.703,175.404 341.611,174.895 343.851,174.895C348.693,174.895 352.253,177.215 352.253,181.696C352.253,185 348.73,189.387 346.162,191.77L353.464,191.77L353.464,195.647L337.612,195.647Z" style="fill:rgb(0,118,178);fill-rule:nonzero;"></path>            <path d="M355.737,195.647L355.737,194.407C360.508,190.181 365.094,185 365.094,182.077C365.094,179.98 363.59,178.962 361.571,178.962C359.81,178.962 358.232,179.471 356.802,180.266L356.361,176.166C357.829,175.404 359.736,174.895 361.976,174.895C366.818,174.895 370.378,177.215 370.378,181.696C370.378,185 366.855,189.387 364.287,191.77L371.589,191.77L371.589,195.647L355.737,195.647Z" style="fill:rgb(0,118,178);fill-rule:nonzero;"></path>            <path d="M287.726,241.275C285.49,241.275 285.113,242.557 285.113,245.433C285.113,248.311 285.49,249.595 287.726,249.595C289.958,249.595 290.336,248.311 290.336,245.433C290.336,242.557 289.958,241.275 287.726,241.275ZM287.726,252.563C282.337,252.563 281.646,248.753 281.646,245.433C281.646,242.115 282.337,238.303 287.726,238.303C293.113,238.303 293.804,242.115 293.804,245.433C293.804,248.753 293.113,252.563 287.726,252.563Z" style="fill:rgb(0,53,99);fill-rule:nonzero;"></path>            <path d="M257.163,238.303C256.025,238.303 254.88,238.579 253.811,239.108C253.57,238.33 252.844,237.761 251.991,237.761L250.452,237.761L250.452,252.249L253.894,252.249L253.894,241.958C254.466,241.657 255.343,241.299 256.665,241.299C257.943,241.299 258.486,241.805 258.486,242.992L258.486,252.249L261.931,252.249L261.931,242.728C261.931,239.792 260.325,238.303 257.163,238.303Z" style="fill:rgb(0,53,99);fill-rule:nonzero;"></path>            <path d="M274.249,249.569C272.985,249.569 272.132,249.16 271.664,248.908L271.664,241.958C272.135,241.707 272.991,241.299 274.249,241.299C276.511,241.299 276.966,242.88 276.966,245.433C276.966,247.987 276.511,249.569 274.249,249.569ZM274.933,238.303C273.697,238.303 272.591,238.558 271.569,239.077C271.32,238.315 270.602,237.761 269.761,237.761L268.221,237.761L268.221,259.936L271.664,259.936L271.664,251.726C272.65,252.261 273.817,252.563 274.933,252.563C278.633,252.563 280.433,250.231 280.433,245.433C280.433,240.637 278.633,238.303 274.933,238.303Z" style="fill:rgb(0,53,99);fill-rule:nonzero;"></path>            <path d="M266.797,252.249L266.797,237.761L263.354,237.761L263.354,250.347C263.354,251.393 264.212,252.249 265.258,252.249L266.797,252.249Z" style="fill:rgb(0,53,99);fill-rule:nonzero;"></path>            <path d="M265.077,236.617C266.272,236.617 267.243,235.645 267.243,234.45C267.243,233.255 266.272,232.284 265.077,232.284C263.882,232.284 262.908,233.255 262.908,234.45C262.908,235.645 263.882,236.617 265.077,236.617Z" style="fill:rgb(0,53,99);fill-rule:nonzero;"></path>            <path d="M295.018,230.381L295.018,250.347C295.018,251.393 295.874,252.249 296.92,252.249L298.46,252.249L298.46,232.282L298.459,232.282C298.458,231.237 297.602,230.381 296.556,230.381L295.018,230.381Z" style="fill:rgb(0,53,99);fill-rule:nonzero;"></path>            <path d="M247.49,230.381C246.442,230.381 245.587,231.237 245.587,232.284L245.587,245.532C245.587,246.944 245.587,248.852 243.686,250.539C241.086,252.846 237.666,251.71 237.577,251.681L237.576,251.681C239.134,252.45 240.819,252.558 241.636,252.558C243.369,252.558 249.029,252.071 249.029,245.794L249.029,230.381L247.49,230.381Z" style="fill:rgb(0,53,99);fill-rule:nonzero;"></path>            <path d="M312.767,240.684C311.468,239.708 309.53,239.329 307.632,239.062C306.567,238.916 305.746,238.768 305.13,238.518C301.899,237.519 300.952,235.161 300.729,233.347C300.38,234.169 300.193,235.11 300.193,236.144C300.193,238.199 300.733,239.6 301.892,240.556C302.989,241.46 304.691,242.025 307.412,242.379C310.098,242.74 311.128,243.241 311.128,245.5C311.128,247.791 309.476,248.905 306.36,248.905C303.543,248.905 301.558,248.172 300.491,247.685L300.193,247.55L300.193,251.077L300.312,251.138C301.689,251.869 304.315,252.401 306.554,252.401C309.274,252.401 311.352,251.74 312.728,250.434C314.008,249.224 314.655,247.496 314.655,245.299C314.655,243.118 314.057,241.652 312.767,240.684Z" style="fill:rgb(0,53,99);fill-rule:nonzero;"></path>            <path d="M323.785,247.937C323.294,248.426 322.42,249.177 321.035,249.177C319.745,249.177 319.116,248.619 319.116,247.413C319.116,246.232 319.678,245.707 321.115,245.537L323.785,245.24L323.785,247.937ZM321.506,237.631C319.864,237.631 318.005,237.886 316.881,238.364L316.752,238.417L316.752,241.483L317.044,241.371C318.415,240.842 319.843,240.642 321.286,240.642C323.397,240.642 323.785,241.217 323.785,242.351L323.785,242.835L320.88,243.066C317.393,243.336 315.552,244.85 315.552,247.544C315.552,250.515 317.49,252.248 320.434,252.248C321.6,252.248 323.048,251.664 323.873,250.862C324.118,251.639 324.853,252.239 325.734,252.239L327.312,252.239L327.312,242.65C327.312,240.168 326.622,237.631 321.506,237.631Z" style="fill:rgb(0,53,99);fill-rule:nonzero;"></path>            <path d="M332.174,252.249L332.174,237.757L328.73,237.757L328.73,250.346C328.73,251.393 329.588,252.249 330.635,252.249L332.174,252.249Z" style="fill:rgb(0,53,99);fill-rule:nonzero;"></path>            <path d="M330.453,236.615C331.648,236.615 332.62,235.641 332.62,234.447C332.62,233.25 331.648,232.28 330.453,232.28C329.258,232.28 328.283,233.25 328.283,234.447C328.283,235.641 329.258,236.615 330.453,236.615Z" style="fill:rgb(0,53,99);fill-rule:nonzero;"></path>            <g>                <clipPath id="_clip1">                    <path d="M304.082,237.685C303.85,237.31 303.722,236.832 303.722,236.172C303.722,234.18 305.195,233.169 307.938,233.169C309.348,233.169 310.739,233.336 312.071,233.739C312.593,233.897 313.104,234.09 313.604,234.323L313.604,231.488C313.604,231.254 313.607,230.773 313.607,230.773C313.607,230.773 312.79,230.415 312.377,230.285C311.135,229.893 309.524,229.676 307.771,229.676C305.115,229.676 303.114,230.348 301.822,231.675C301.5,232.01 301.634,233.055 301.679,233.493C301.875,235.468 303.003,236.827 304.082,237.685Z"></path>                </clipPath>                <g clip-path="url(#_clip1)">                    <path d="M304.076,237.685C303.844,237.31 303.716,236.833 303.716,236.173C303.118,235.392 302.5,234.178 302.689,232.416C302.313,232.731 301.972,233.089 301.674,233.495C301.869,235.469 302.997,236.828 304.076,237.685Z" style="fill:rgb(196,21,28);"></path>                    <path d="M303.716,236.173C303.716,234.181 305.19,233.17 307.932,233.17C307.937,232.485 308.033,231.652 308.43,230.548C306.326,230.578 304.223,231.132 302.689,232.416C302.5,234.178 303.118,235.392 303.716,236.173Z" style="fill:rgb(196,21,28);"></path>                    <path d="M307.932,233.17C309.341,233.17 310.732,233.337 312.064,233.741C312.058,232.866 312.215,232.024 312.345,231.09C311.142,230.728 309.785,230.529 308.43,230.548C308.033,231.652 307.937,232.485 307.932,233.17Z" style="fill:rgb(196,21,28);"></path>                    <path d="M312.064,233.741C312.585,233.898 313.096,234.091 313.597,234.325L313.597,231.49C313.238,231.338 312.784,231.22 312.345,231.09C312.215,232.024 312.058,232.866 312.064,233.741Z" style="fill:rgb(196,21,28);"></path>                    <path d="M301.674,233.495C303.024,231.665 305.243,230.789 307.559,230.591C307.619,230.251 307.723,229.834 307.764,229.678C305.109,229.678 303.108,230.35 301.817,231.677C301.495,232.012 301.629,233.056 301.674,233.495Z" style="fill:rgb(196,21,28);"></path>                    <path d="M307.559,230.591C309.196,230.451 310.883,230.65 312.345,231.09C312.406,230.645 312.603,230.494 312.369,230.288C311.128,229.895 309.518,229.678 307.764,229.678C307.723,229.834 307.619,230.251 307.559,230.591Z" style="fill:rgb(196,21,28);"></path>                    <path d="M312.345,231.09C312.784,231.22 313.238,231.338 313.597,231.49C313.597,231.256 313.6,230.775 313.6,230.775C313.6,230.775 312.782,230.417 312.369,230.288C312.603,230.494 312.406,230.645 312.345,231.09Z" style="fill:rgb(196,21,28);"></path>                </g>            </g>            <path d="M244.894,248.095C244.257,248.955 243.175,249.378 241.634,249.378C238.976,249.378 237.683,248.12 237.683,245.532L237.683,232.283L234.24,232.283L234.24,245.795C234.24,248.468 235.268,250.09 236.58,251.073C237.415,251.276 242.618,252.345 244.894,248.095Z" style="fill:rgb(196,21,28);fill-rule:nonzero;"></path>            <g>                <clipPath id="_clip2">                    <path d="M234.241,245.532L237.683,245.532L237.683,232.283C237.683,231.76 237.469,231.283 237.124,230.939C236.779,230.594 236.303,230.38 235.78,230.38L234.241,230.38L234.241,245.532Z"></path>                </clipPath>                <g clip-path="url(#_clip2)">                    <path d="M234.239,245.528L234.775,245.528C234.775,236.85 234.795,236.85 234.801,232.304C234.613,232.302 234.427,232.298 234.239,232.307L234.239,245.528Z" style="fill:rgb(196,21,28);"></path>                    <path d="M234.775,245.528L237.681,245.528L237.681,232.631C236.759,232.081 235.811,232.315 234.801,232.304C234.795,236.85 234.775,236.85 234.775,245.528Z" style="fill:rgb(196,21,28);"></path>                    <path d="M234.239,232.307C234.427,232.298 234.613,232.302 234.801,232.304C234.801,231.659 234.768,231.021 234.718,230.377L234.239,230.377L234.239,232.307Z" style="fill:rgb(196,21,28);"></path>                    <path d="M234.801,232.304C235.214,232.309 235.616,232.272 236.011,232.265C236.014,232.142 236.016,232.02 236.018,231.897C235.617,231.908 235.212,231.942 234.798,231.943C234.8,232.063 234.801,232.184 234.801,232.304Z" style="fill:rgb(196,21,28);"></path>                    <path d="M236.011,232.265C236.582,232.254 237.136,232.306 237.681,232.631L237.681,232.28C237.155,231.957 236.598,231.882 236.018,231.897C236.016,232.02 236.014,232.142 236.011,232.265Z" style="fill:rgb(196,21,28);"></path>                    <path d="M234.798,231.943C235.212,231.942 235.617,231.908 236.018,231.897C236.024,231.359 235.931,230.842 235.778,230.377L234.718,230.377C234.758,230.901 234.788,231.419 234.798,231.943Z" style="fill:rgb(196,21,28);"></path>                    <path d="M236.018,231.897C236.598,231.882 237.155,231.957 237.681,232.28C237.681,231.756 237.467,231.28 237.122,230.936C236.777,230.591 236.301,230.377 235.778,230.377C235.931,230.842 236.024,231.359 236.018,231.897Z" style="fill:rgb(196,21,28);"></path>                </g>            </g>            <path d="M276.937,258.325L276.268,258.325L276.604,257.168L276.937,258.325ZM276.233,255.884L274.962,259.939L275.815,259.939L276.083,259.016L277.125,259.016L277.393,259.939L278.245,259.939L276.975,255.884L276.233,255.884Z" style="fill:rgb(196,21,28);fill-rule:nonzero;"></path>            <path d="M281.765,257.514C281.231,257.445 281.131,257.376 281.131,257.081C281.131,256.969 281.131,256.627 281.81,256.627C282.15,256.627 282.478,256.694 282.76,256.816L282.919,256.884L282.919,256.093L282.856,256.062C282.712,255.99 282.379,255.868 281.781,255.868C280.468,255.868 280.326,256.712 280.326,257.077C280.326,257.907 280.832,258.131 281.706,258.242C282.222,258.308 282.295,258.402 282.295,258.715C282.295,258.96 282.206,259.241 281.523,259.241C281.025,259.241 280.671,259.085 280.485,259.001L280.326,258.933L280.326,259.741L280.387,259.769C280.684,259.92 281.199,259.999 281.559,259.999C282.907,259.999 283.109,259.173 283.109,258.68C283.109,257.771 282.474,257.611 281.765,257.514Z" style="fill:rgb(196,21,28);fill-rule:nonzero;"></path>            <path d="M286.628,257.514C286.097,257.445 285.994,257.376 285.994,257.081C285.994,256.969 285.994,256.627 286.675,256.627C287.015,256.627 287.343,256.694 287.624,256.816L287.781,256.884L287.781,256.093L287.72,256.062C287.574,255.99 287.243,255.868 286.643,255.868C285.331,255.868 285.189,256.712 285.189,257.077C285.189,257.907 285.695,258.131 286.57,258.242C287.084,258.308 287.158,258.402 287.158,258.715C287.158,258.96 287.071,259.241 286.386,259.241C285.889,259.241 285.537,259.085 285.348,259.001L285.189,258.933L285.189,259.741L285.251,259.769C285.547,259.92 286.063,259.999 286.423,259.999C287.771,259.999 287.974,259.173 287.974,258.68C287.974,257.771 287.337,257.611 286.628,257.514Z" style="fill:rgb(196,21,28);fill-rule:nonzero;"></path>            <rect x="290.055" y="255.928" width="0.79" height="4.011" style="fill:rgb(196,21,28);fill-rule:nonzero;"></rect>            <path d="M294.599,255.868C293.474,255.868 292.926,256.543 292.926,257.935C292.926,259.323 293.474,259.999 294.599,259.999C295.06,259.999 295.327,259.913 295.529,259.829L295.598,259.801L295.598,259.019L295.443,259.081C295.181,259.187 294.974,259.243 294.635,259.243C294.01,259.243 293.731,258.84 293.731,257.935C293.731,257.027 294.01,256.623 294.635,256.623C294.974,256.623 295.181,256.681 295.443,256.786L295.598,256.849L295.598,256.066L295.529,256.038C295.327,255.954 295.06,255.868 294.599,255.868Z" style="fill:rgb(196,21,28);fill-rule:nonzero;"></path>            <path d="M299.857,258.585C299.857,259.052 299.643,259.259 299.162,259.259C298.683,259.259 298.469,259.052 298.469,258.585L298.469,255.928L297.679,255.928L297.679,258.637C297.679,259.902 298.814,259.999 299.162,259.999C299.512,259.999 300.649,259.902 300.649,258.637L300.649,255.928L299.857,255.928L299.857,258.585Z" style="fill:rgb(196,21,28);fill-rule:nonzero;"></path>            <path d="M304.639,257.167C304.639,257.479 304.559,257.659 304.155,257.659L303.519,257.659L303.519,256.674L304.155,256.674C304.561,256.674 304.639,256.848 304.639,257.167ZM305.478,257.167C305.478,256.333 305.019,255.928 304.074,255.928L302.73,255.928L302.73,259.939L303.519,259.939L303.519,258.4L304.123,258.4L304.808,259.939L305.723,259.939L304.903,258.236C305.295,258.055 305.478,257.711 305.478,257.167Z" style="fill:rgb(196,21,28);fill-rule:nonzero;"></path>            <path d="M309.78,258.325L309.11,258.325L309.444,257.168L309.78,258.325ZM309.074,255.884L307.803,259.939L308.657,259.939L308.923,259.016L309.966,259.016L310.233,259.939L311.087,259.939L309.814,255.884L309.074,255.884Z" style="fill:rgb(196,21,28);fill-rule:nonzero;"></path>            <path d="M316.092,256.454L316.092,255.928L313.294,255.928L313.294,256.699L315.006,256.689L313.167,259.413L313.167,259.939L316.167,259.939L316.167,259.167L314.253,259.178L316.092,256.454Z" style="fill:rgb(196,21,28);fill-rule:nonzero;"></path>            <rect x="318.248" y="255.928" width="0.79" height="4.011" style="fill:rgb(196,21,28);fill-rule:nonzero;"></rect>            <path d="M322.691,259.259C322.126,259.259 321.926,258.913 321.926,257.935C321.926,256.954 322.126,256.609 322.691,256.609C323.257,256.609 323.457,256.954 323.457,257.935C323.457,258.913 323.257,259.259 322.691,259.259ZM322.691,255.868C321.298,255.868 321.119,256.973 321.119,257.935C321.119,258.896 321.298,259.999 322.691,259.999C324.085,259.999 324.262,258.896 324.262,257.935C324.262,256.973 324.085,255.868 322.691,255.868Z" style="fill:rgb(196,21,28);fill-rule:nonzero;"></path>            <path d="M328.499,258.327L327.034,255.928L326.343,255.928L326.343,259.939L327.128,259.939L327.115,257.54L328.581,259.939L329.273,259.939L329.273,255.928L328.487,255.928L328.499,258.327Z" style="fill:rgb(196,21,28);fill-rule:nonzero;"></path>            <rect x="331.354" y="255.928" width="0.789" height="4.011" style="fill:rgb(196,21,28);fill-rule:nonzero;"></rect>            <path d="M263.374,258.59L263.374,259.927L237.61,259.927C233.805,259.927 229.887,259.321 228.295,258.683L228.291,255.914C229.495,256.767 232.279,258.59 238.761,258.59L263.374,258.59Z" style="fill:rgb(237,28,36);"></path>            <path d="M241.92,255.923L263.374,255.914L263.374,257.251L240.18,257.251C235.14,257.251 229.96,254.214 227.15,249.83L227.152,244.356C227.387,244.997 230.515,255.923 241.92,255.923Z" style="fill:rgb(0,166,80);"></path>            <path d="M240.18,257.251C235.282,257.233 230.405,255.914 226.012,249.817L226.012,252.902C230.405,257.163 233.899,258.397 238.761,258.59L263.374,258.59L263.374,257.251L240.18,257.251Z" style="fill:white;fill-rule:nonzero;"></path>            <path d="M255.609,214.553L256.725,214.553C257.657,214.553 257.832,213.92 257.832,213.454C257.832,212.989 257.657,212.356 256.725,212.356L255.609,212.356L255.609,214.553ZM255.609,217.741L254.677,217.741L254.677,211.498L256.683,211.498C258.289,211.498 258.847,212.431 258.847,213.454C258.847,214.479 258.289,215.403 256.683,215.403L255.609,215.403L255.609,217.741Z" style="fill:rgb(0,53,99);fill-rule:nonzero;"></path>            <path d="M260.605,214.354L261.838,214.354C262.704,214.354 262.82,213.863 262.82,213.355C262.82,212.838 262.704,212.356 261.838,212.356L260.605,212.356L260.605,214.354ZM260.605,217.741L259.674,217.741L259.674,211.498L261.704,211.498C263.32,211.498 263.836,212.223 263.836,213.355C263.836,214.161 263.587,214.753 262.82,215.019L264.127,217.741L263.037,217.741L261.905,215.202L260.605,215.202L260.605,217.741Z" style="fill:rgb(0,53,99);fill-rule:nonzero;"></path>            <path d="M268.542,214.936L265.944,214.936L265.944,216.884L268.808,216.884L268.808,217.741L265.012,217.741L265.012,211.498L268.808,211.498L268.808,212.356L265.944,212.356L265.944,214.078L268.542,214.078L268.542,214.936Z" style="fill:rgb(0,53,99);fill-rule:nonzero;"></path>            <path d="M273.972,215.852C273.972,217.033 273.272,217.841 271.599,217.841C270.975,217.841 270.176,217.699 269.751,217.484L269.751,216.551C270.093,216.7 270.691,216.958 271.541,216.958C272.664,216.958 272.998,216.501 272.998,215.909C272.998,215.219 272.706,215.052 271.865,214.945C270.342,214.753 269.751,214.345 269.751,213.204C269.751,212.289 270.268,211.399 271.966,211.399C272.772,211.399 273.339,211.54 273.655,211.699L273.655,212.606C273.197,212.406 272.631,212.281 272.016,212.281C271.041,212.281 270.708,212.68 270.708,213.213C270.708,213.887 271.092,214.003 271.916,214.112C273.214,214.287 273.972,214.578 273.972,215.852Z" style="fill:rgb(0,53,99);fill-rule:nonzero;"></path>            <path d="M278.535,214.936L275.938,214.936L275.938,216.884L278.802,216.884L278.802,217.741L275.006,217.741L275.006,211.498L278.802,211.498L278.802,212.356L275.938,212.356L275.938,214.078L278.535,214.078L278.535,214.936Z" style="fill:rgb(0,53,99);fill-rule:nonzero;"></path>            <path d="M283.49,217.741L280.777,213.305L280.802,217.741L279.878,217.741L279.878,211.498L280.727,211.498L283.44,215.935L283.416,211.498L284.34,211.498L284.34,217.741L283.49,217.741Z" style="fill:rgb(0,53,99);fill-rule:nonzero;"></path>            <path d="M287.797,212.356L287.797,217.741L286.864,217.741L286.864,212.356L285.241,212.356L285.241,211.498L289.42,211.498L289.42,212.356L287.797,212.356Z" style="fill:rgb(0,53,99);fill-rule:nonzero;"></path>            <path d="M293.852,214.936L291.254,214.936L291.254,216.884L294.117,216.884L294.117,217.741L290.321,217.741L290.321,211.498L294.117,211.498L294.117,212.356L291.254,212.356L291.254,214.078L293.852,214.078L293.852,214.936Z" style="fill:rgb(0,53,99);fill-rule:nonzero;"></path>            <path d="M296.126,216.884L297.074,216.884C298.323,216.884 298.723,215.977 298.723,214.619C298.723,213.263 298.323,212.356 297.074,212.356L296.126,212.356L296.126,216.884ZM295.193,217.741L295.193,211.498L297.05,211.498C299.122,211.498 299.697,212.847 299.697,214.619C299.697,216.393 299.122,217.741 297.05,217.741L295.193,217.741Z" style="fill:rgb(0,53,99);fill-rule:nonzero;"></path>            <path d="M303.538,216.884L304.786,216.884C305.66,216.884 305.877,216.401 305.877,215.885C305.877,215.244 305.586,214.895 304.795,214.895L303.538,214.895L303.538,216.884ZM304.728,212.356L303.538,212.356L303.538,214.104L304.762,214.104C305.511,214.104 305.685,213.646 305.685,213.246C305.685,212.83 305.544,212.356 304.728,212.356ZM302.605,211.498L304.703,211.498C306.227,211.498 306.685,212.24 306.685,213.204C306.685,213.738 306.409,214.22 305.935,214.445C306.534,214.619 306.876,215.194 306.876,215.909C306.876,216.942 306.368,217.741 304.753,217.741L302.605,217.741L302.605,211.498Z" style="fill:rgb(0,53,99);fill-rule:nonzero;"></path>            <path d="M310.425,215.236L310.425,217.741L309.476,217.741L309.476,215.236L307.353,211.498L308.41,211.498L309.95,214.411L311.49,211.498L312.547,211.498L310.425,215.236Z" style="fill:rgb(0,53,99);fill-rule:nonzero;"></path>            <path d="M187.358,138.801L187.358,115.129L201.351,115.129L201.351,117.848L190.671,117.848L190.671,125.534L199.423,125.534L199.423,128.253L190.671,128.253L190.671,136.083L202.756,136.083L202.756,138.801L187.358,138.801Z" style="fill:rgb(0,118,178);fill-rule:nonzero;"></path>            <path d="M216.859,139.199C210.621,139.199 206.591,135.914 206.591,130.831L206.591,115.129L209.903,115.129L209.903,130.505C209.903,134.179 212.624,136.372 217.181,136.372C221.817,136.372 224.698,134.124 224.698,130.505L224.698,115.129L228.051,115.129L228.051,138.801L225.07,138.801L224.971,136.34C223.232,138.161 220.302,139.199 216.859,139.199Z" style="fill:rgb(0,118,178);fill-rule:nonzero;"></path>            <path d="M241.108,125.534C243.488,125.534 245.897,124.214 245.897,121.691C245.897,119.428 243.862,117.848 240.948,117.848L237.085,117.848L237.085,125.534L241.108,125.534ZM249.593,138.801L241.041,128.253L237.085,128.253L237.085,138.801L233.772,138.801L233.772,115.129L241.39,115.129C245.276,115.129 249.21,117.383 249.21,121.691C249.21,124.474 247.339,126.831 244.424,127.75L253.534,138.801L249.593,138.801Z" style="fill:rgb(0,118,178);fill-rule:nonzero;"></path>            <path d="M267.126,117.45C262.1,117.45 256.758,120.773 256.758,126.93C256.758,132.885 262.028,136.444 267.126,136.444C272.222,136.444 277.493,132.885 277.493,126.93C277.493,120.996 272.222,117.45 267.126,117.45ZM267.126,139.199C260.381,139.199 253.404,134.61 253.404,126.93C253.404,119.295 260.381,114.733 267.126,114.733C273.87,114.733 280.847,119.295 280.847,126.93C280.847,134.61 273.87,139.199 267.126,139.199Z" style="fill:rgb(0,118,178);fill-rule:nonzero;"></path>            <path d="M292.663,125.534C295.042,125.534 297.45,124.214 297.45,121.691C297.45,119.428 295.415,117.848 292.502,117.848L288.799,117.848L288.799,125.534L292.663,125.534ZM285.485,138.801L285.485,115.129L292.944,115.129C296.83,115.129 300.763,117.383 300.763,121.691C300.763,125.953 296.816,128.253 293.103,128.253L288.799,128.253L288.799,138.801L285.485,138.801Z" style="fill:rgb(0,118,178);fill-rule:nonzero;"></path>            <path d="M304.517,138.801L304.517,115.129L318.509,115.129L318.509,117.848L307.83,117.848L307.83,125.534L316.581,125.534L316.581,128.253L307.83,128.253L307.83,136.083L319.914,136.083L319.914,138.801L304.517,138.801Z" style="fill:rgb(0,118,178);fill-rule:nonzero;"></path>            <path d="M337.353,129.725L335.339,125.14L335.021,124.382C334.461,123.043 333.884,121.662 333.332,120.2C332.61,122.089 331.903,123.716 331.291,125.104L329.274,129.725L337.353,129.725ZM341.444,138.801L338.514,132.334L328.077,132.334L325.185,138.801L321.851,138.801L332.73,114.66L333.979,114.66L344.858,138.801L341.444,138.801Z" style="fill:rgb(0,118,178);fill-rule:nonzero;"></path>            <path d="M370.423,139.307L356.76,125.268C355.09,123.594 353.312,121.739 351.942,120.238C351.995,121.803 351.995,123.156 351.995,124.581L351.995,138.801L348.683,138.801L348.683,115.129L351.013,115.129L363.592,128.194C365.13,129.778 366.863,131.561 368.325,133.179C368.274,131.706 368.274,130.212 368.274,128.881L368.274,115.129L371.587,115.129L371.587,139.307L370.423,139.307Z" style="fill:rgb(0,118,178);fill-rule:nonzero;"></path>            <path d="M203.385,158.57L201.265,153.745L200.929,152.94C200.339,151.531 199.73,150.077 199.149,148.533C198.396,150.507 197.647,152.234 196.998,153.707L194.875,158.57L203.385,158.57ZM207.656,168.046L204.587,161.273L193.635,161.273L190.606,168.046L187.148,168.046L198.529,142.79L199.816,142.79L211.198,168.046L207.656,168.046Z" style="fill:rgb(0,118,178);fill-rule:nonzero;"></path>            <path d="M227.161,145.682C221.89,145.682 216.286,149.167 216.286,155.626C216.286,161.873 221.815,165.608 227.161,165.608C232.507,165.608 238.036,161.873 238.036,155.626C238.036,149.402 232.507,145.682 227.161,145.682ZM238.978,172.738C235.861,172.738 233.811,172.028 230.895,170.627C228.958,169.72 227.064,168.896 225.703,168.366C218.246,167.765 212.805,162.403 212.805,155.626C212.805,147.638 220.103,142.866 227.161,142.866C234.219,142.866 241.519,147.638 241.519,155.626C241.519,161.468 237.391,166.374 231.415,167.721C231.89,167.895 232.444,168.125 233.085,168.394C235.77,169.603 237.563,170.074 239.483,170.074C240.718,170.074 241.779,169.883 242.728,169.491L243.835,169.036L241.199,172.356C240.563,172.618 239.796,172.738 238.978,172.738Z" style="fill:rgb(0,118,178);fill-rule:nonzero;"></path>            <path d="M257.146,168.462C250.622,168.462 246.406,165.028 246.406,159.713L246.406,143.282L249.846,143.282L249.846,159.371C249.846,163.23 252.701,165.532 257.483,165.532C262.35,165.532 265.373,163.172 265.373,159.371L265.373,143.282L268.854,143.282L268.854,168.046L265.763,168.046L265.657,165.447C263.842,167.367 260.765,168.462 257.146,168.462Z" style="fill:rgb(0,118,178);fill-rule:nonzero;"></path>            <path d="M289.138,158.57L287.018,153.745L286.688,152.958C286.094,151.537 285.481,150.075 284.902,148.534C284.148,150.508 283.399,152.234 282.75,153.708L280.627,158.57L289.138,158.57ZM293.408,168.046L290.339,161.273L279.387,161.273L276.358,168.046L272.9,168.046L284.282,142.79L285.569,142.79L296.951,168.046L293.408,168.046Z" style="fill:rgb(0,118,178);fill-rule:nonzero;"></path>            <path d="M303.726,168.046L303.726,146.098L294.517,146.098L294.517,143.282L316.419,143.282L316.419,146.098L307.167,146.098L307.167,168.046L303.726,168.046Z" style="fill:rgb(0,118,178);fill-rule:nonzero;"></path>            <rect x="320.256" y="143.282" width="3.439" height="24.764" style="fill:rgb(0,118,178);fill-rule:nonzero;"></rect>            <path d="M343.528,168.462C336.388,168.462 329.002,163.675 329.002,155.664C329.002,147.653 336.388,142.866 343.528,142.866C347.552,142.866 350.126,143.77 351.577,144.528L351.794,144.641L351.091,147.515L350.73,147.305C349.385,146.52 346.863,145.682 343.822,145.682C338.325,145.682 332.483,149.181 332.483,155.664C332.483,162.122 338.325,165.608 343.822,165.608C346.865,165.608 349.36,165.074 351.24,164.02L351.879,163.663L350.984,167.081L350.926,167.11C349.014,168.056 346.753,168.462 343.528,168.462Z" style="fill:rgb(0,118,178);fill-rule:nonzero;"></path>            <path d="M362.538,168.462C359.837,168.462 357.116,167.75 355.263,166.56L355.216,166.531L355.146,166.441L354.114,162.574L354.809,163.05C357.31,164.771 359.879,165.608 362.664,165.608C365.848,165.608 368.072,163.914 368.072,161.491C368.072,159.19 366.562,157.763 362.862,156.566C358.031,155.04 355.581,152.585 355.581,149.269C355.581,146.185 358.166,142.866 363.842,142.866C366.437,142.866 368.611,143.645 369.684,144.313L369.881,144.436L369.116,147.188L368.761,146.958C367.757,146.307 365.764,145.607 363.758,145.607C360.627,145.607 358.936,147.416 358.936,149.117C358.936,150.944 360.477,152.345 363.645,153.401C369.115,155.172 371.555,157.597 371.555,161.264C371.555,165.637 368.016,168.462 362.538,168.462Z" style="fill:rgb(0,118,178);fill-rule:nonzero;"></path>            <path d="M370.089,57.807L368.925,57.807L367.868,56.415L367.525,56.415L367.525,57.807L366.576,57.807L366.576,54.009L368.104,54.009C368.314,54.009 368.499,54.022 368.654,54.048C368.811,54.075 368.956,54.13 369.088,54.213C369.225,54.3 369.333,54.41 369.412,54.544C369.492,54.677 369.532,54.847 369.532,55.052C369.532,55.343 369.467,55.579 369.337,55.76C369.205,55.941 369.029,56.085 368.81,56.193L370.089,57.807ZM368.553,55.173C368.553,55.078 368.534,54.995 368.497,54.926C368.461,54.858 368.4,54.804 368.315,54.767C368.255,54.741 368.189,54.726 368.116,54.719C368.043,54.712 367.953,54.709 367.844,54.709L367.525,54.709L367.525,55.731L367.798,55.731C367.931,55.731 368.043,55.723 368.136,55.706C368.228,55.691 368.307,55.656 368.371,55.604C368.433,55.555 368.478,55.499 368.508,55.432C368.538,55.365 368.553,55.28 368.553,55.173Z" style="fill:rgb(0,118,178);fill-rule:nonzero;"></path>            <path d="M368.089,53.095C369.638,53.095 370.901,54.359 370.901,55.908C370.901,57.456 369.638,58.72 368.089,58.72C366.54,58.72 365.276,57.456 365.276,55.908C365.276,54.359 366.54,53.095 368.089,53.095ZM368.089,52.343C370.052,52.343 371.654,53.945 371.654,55.908C371.654,57.871 370.052,59.473 368.089,59.473C366.126,59.473 364.523,57.871 364.523,55.908C364.523,53.945 366.126,52.343 368.089,52.343Z" style="fill:rgb(0,118,178);"></path>            <path d="M326.142,94.317L326.142,98.987C325.032,99.017 323.919,99.051 322.82,99.086L322.82,98.821L322.41,98.393L320.223,90.843C320.42,89.955 320.833,88.84 321.705,88.073C326.404,88.48 326.404,93.659 326.404,93.659L325.958,93.623C325.958,94.04 326.142,94.317 326.142,94.317ZM316.265,49.777C315.504,49.64 314.735,49.514 313.956,49.39L313.956,45.947L316.265,46.356L316.265,49.777ZM311.947,65.051C311.947,65.413 312.15,65.659 312.15,65.659L312.15,73.603L309.817,73.499L309.795,73.499L308.938,70.846L305.45,60.052C305.944,59.989 306.506,59.982 307.146,60.052C312.446,60.626 312.446,65.104 312.446,65.104L311.947,65.051ZM312.15,93.413L312.15,99.404C309.831,99.473 307.516,99.543 305.227,99.61C305.081,99.616 304.937,99.621 304.794,99.625L304.794,92.386C304.794,92.386 304.994,92.106 304.994,91.638L304.496,91.611C304.496,91.611 304.496,88.389 306.682,86.859C306.833,86.856 306.984,86.859 307.146,86.865L307.146,86.868C312.446,87.133 312.446,92.7 312.446,92.7L311.947,92.674C311.947,93.124 312.15,93.413 312.15,93.413ZM320.729,62.554C320.994,62.569 321.276,62.607 321.577,62.671C326.086,63.599 326.086,67.938 326.086,67.938L325.66,67.847C325.66,68.198 325.837,68.453 325.837,68.453L325.837,75.592C324.127,75.305 322.351,75.033 320.513,74.773L320.513,65.385C320.513,65.385 320.689,65.182 320.689,64.78L320.265,64.683C320.265,64.683 320.265,63.599 320.729,62.554ZM322.021,53.588C322.171,53.594 322.368,53.613 322.496,53.63C323.74,53.82 324.356,54.37 324.671,54.867C324.98,55.361 324.98,55.814 324.98,55.814L324.747,55.781C324.747,55.923 324.843,56.031 324.843,56.031L324.843,58.23C323.891,58.002 322.912,57.775 321.909,57.551L321.909,54.757C321.909,54.757 322.004,54.668 322.004,54.507L321.771,54.465C321.771,54.465 321.771,54.019 322.021,53.588ZM332.315,50.156L333.574,50.614L333.574,54.295C333.16,54.147 332.74,53.998 332.315,53.858L332.315,50.156ZM336.377,70.616L336.037,70.515C336.037,70.849 336.174,71.1 336.174,71.1L336.174,77.612C335.069,77.364 333.923,77.115 332.74,76.872L332.74,68.395C332.74,68.395 332.88,68.214 332.88,67.854L332.54,67.745C332.54,67.745 332.54,66.518 333.063,65.515C336.377,66.715 336.377,70.616 336.377,70.616ZM336.564,95.178L336.564,98.674C335.287,98.711 334.011,98.751 332.74,98.79L332.74,93.846C332.74,93.846 332.88,93.606 332.88,93.198L332.54,93.161C332.54,93.161 332.54,90.918 333.613,89.527C336.768,90.233 336.768,94.575 336.768,94.575L336.425,94.539C336.425,94.926 336.564,95.178 336.564,95.178ZM342.393,91.212C344.279,92.338 344.279,95.522 344.279,95.522L343.999,95.493C343.999,95.84 344.114,96.072 344.114,96.072L344.114,98.465C343.393,98.485 342.671,98.504 341.955,98.523L341.955,94.703C341.955,94.703 342.07,94.484 342.07,94.102L341.789,94.069C341.789,94.069 341.789,92.466 342.393,91.212ZM342.134,68.943C344.279,70.383 344.279,73.616 344.279,73.616L343.999,73.514C343.999,73.839 344.114,74.084 344.114,74.084L344.114,79.612C343.417,79.417 342.695,79.22 341.955,79.024L341.955,71.505C341.955,71.505 342.07,71.337 342.07,70.989L341.789,70.884C341.789,70.884 341.789,69.859 342.134,68.943ZM344.897,55.693L345.435,55.975L345.435,59.473C345.259,59.379 345.079,59.283 344.897,59.191L344.897,55.693ZM349.392,92.78C350.562,93.84 350.562,96.458 350.562,96.458L350.366,96.432C350.366,96.743 350.448,96.951 350.448,96.951L350.448,98.3C350.043,98.311 349.635,98.32 349.23,98.331L349.23,95.515C349.23,95.515 349.311,95.312 349.311,94.963L349.11,94.935C349.11,94.935 349.11,93.83 349.392,92.78ZM349.325,72.034C350.562,73.35 350.562,75.843 350.562,75.843L350.366,75.762C350.366,76.054 350.448,76.268 350.448,76.268L350.448,81.564C350.054,81.428 349.647,81.296 349.23,81.159L349.23,74.2C349.23,74.2 349.311,74.04 349.311,73.733L349.11,73.651C349.11,73.651 349.11,72.829 349.325,72.034ZM297.293,92.037L296.757,92.037C296.757,92.503 296.977,92.791 296.977,92.791L296.977,99.897C296.023,99.93 295.093,99.963 294.149,99.996L288.577,87.694C288.852,87.292 289.189,86.912 289.608,86.585C289.742,86.481 289.879,86.386 290.02,86.296C297.763,86.296 297.293,92.037 297.293,92.037ZM287.46,63.667C288.138,63.294 289.007,62.969 290.232,62.956C295.299,63.033 295.299,67.757 295.299,67.757L294.821,67.757C294.821,68.143 295.016,68.384 295.016,68.384L295.016,69.914C291.45,69.79 288.603,69.76 287.46,69.753L287.46,63.667ZM281.221,68.24L274.953,68.24C274.986,68.097 275.019,67.901 275.019,67.757L274.655,67.757C274.655,67.757 274.655,62.956 278.506,62.956C279.732,62.956 280.646,63.519 281.221,64.188L281.221,68.24ZM280.095,90.6L280.095,100.485C277.856,100.559 275.629,100.639 273.432,100.716C272.17,100.762 270.933,100.811 269.684,100.857L269.684,91.176C269.684,91.176 269.935,90.852 269.935,90.33L269.333,90.33C269.333,90.33 269.333,83.871 275.711,83.871C276.577,83.871 277.324,83.99 277.969,84.197C280.449,86.136 280.449,89.721 280.449,89.721L279.847,89.721C279.847,90.262 280.095,90.6 280.095,90.6ZM260.668,57.031C260.668,57.501 260.898,57.768 260.898,57.768L260.898,68.993C258.035,69.214 255.277,69.468 252.62,69.749L252.62,60.668C252.62,60.668 252.852,60.392 252.852,59.984L252.293,60.046C252.293,60.046 252.293,55.006 258.247,54.361C259.183,54.26 259.971,54.3 260.635,54.436C261.229,55.706 261.229,56.961 261.229,56.961L260.668,57.031ZM260.898,90.719L260.898,101.199C258.105,101.31 255.342,101.42 252.62,101.531L252.62,91.874C252.62,91.874 252.852,91.549 252.852,91.043L252.293,91.075C252.293,91.075 252.105,84.516 258.784,84.516C261.229,86.239 261.229,89.846 261.229,89.846L260.668,89.877C260.668,90.403 260.898,90.719 260.898,90.719ZM243.906,33.49L243.906,42.515C241.748,43.01 239.665,43.549 237.652,44.117L237.652,37.513C237.652,37.513 237.849,37.236 237.849,36.871L237.372,36.999C237.372,36.999 237.372,32.499 242.439,31.147C242.95,31.012 243.407,30.933 243.818,30.906C244.186,31.836 244.186,32.731 244.186,32.731L243.71,32.879C243.71,33.291 243.906,33.49 243.906,33.49ZM243.449,91.395L243.449,101.908C241.238,102.005 239.049,102.098 236.89,102.188L236.89,92.892C236.89,92.892 237.098,92.581 237.098,92.111L236.597,92.15C236.597,92.15 236.597,86.329 241.881,85.869C243.74,87.508 243.74,90.562 243.74,90.562L243.239,90.606C243.239,91.104 243.449,91.395 243.449,91.395ZM242.019,57.305C242.362,57.232 242.681,57.19 242.976,57.172C243.5,58.343 243.5,59.566 243.5,59.566L243.023,59.676C243.023,60.127 243.22,60.359 243.22,60.359L243.22,70.912C241.151,71.203 239.156,71.513 237.235,71.838L237.235,63.808C237.235,63.808 237.432,63.521 237.432,63.128L236.954,63.225C236.954,63.225 236.954,58.347 242.019,57.305ZM230.16,37.737L230.16,46.499C228.701,47.013 227.288,47.544 225.925,48.085L225.925,42.344C225.925,42.344 226.08,42.056 226.08,41.703L225.707,41.858C225.707,41.858 225.707,37.465 229.692,35.822C229.873,35.747 230.046,35.686 230.212,35.634C230.384,36.357 230.384,36.972 230.384,36.972L230.009,37.149C230.009,37.555 230.16,37.737 230.16,37.737ZM229.311,63.135C229.311,63.539 229.472,63.742 229.472,63.742L229.472,73.275C228.137,73.55 226.852,73.826 225.607,74.104L225.607,66.782C225.607,66.782 225.765,66.502 225.765,66.127L225.38,66.239C225.38,66.239 225.38,61.854 229.104,60.505L229.108,60.505C229.694,61.633 229.694,63.013 229.694,63.013L229.311,63.135ZM229.472,92.362L229.472,102.52C228.022,102.584 226.589,102.645 225.168,102.712L225.168,93.86C225.168,93.86 225.327,93.572 225.327,93.141L224.942,93.178C224.942,93.178 224.942,88.301 228.486,87.501L228.488,87.501C229.694,89.06 229.694,91.592 229.694,91.592L229.311,91.634C229.311,92.093 229.472,92.362 229.472,92.362ZM205.276,33.375C205.431,33.165 205.587,32.958 205.748,32.746L205.748,35.875C205.59,36.074 205.431,36.266 205.276,36.46L205.276,33.375ZM210.743,91.148C211.062,92.335 211.062,93.588 211.062,93.588L210.834,93.618C210.834,94.01 210.927,94.239 210.927,94.239L210.927,103.381C210.47,103.401 210.015,103.425 209.561,103.447L209.561,95.851C209.561,95.851 209.652,95.622 209.652,95.27L209.429,95.299C209.429,95.299 209.429,92.382 210.743,91.148ZM210.823,67.836C211.062,68.729 211.062,69.651 211.062,69.651L210.834,69.746C210.834,70.092 210.927,70.268 210.927,70.268L210.927,78.096C210.461,78.248 210.004,78.398 209.561,78.551L209.561,72.595C209.561,72.595 209.652,72.355 209.652,72.028L209.429,72.116C209.429,72.116 209.429,69.316 210.823,67.836ZM211.695,46.409C211.716,46.718 211.716,46.924 211.716,46.924L211.492,47.129C211.492,47.526 211.583,47.689 211.583,47.689L211.583,54.93C211.033,55.242 210.501,55.553 209.985,55.859L209.985,52.551C209.985,52.551 210.078,52.261 210.078,51.914L209.855,52.091C209.855,52.091 209.855,48.469 211.695,46.409ZM218.617,89.396C219.296,90.808 219.296,92.612 219.296,92.612L218.979,92.651C218.979,93.077 219.11,93.323 219.11,93.323L219.11,102.992C218.68,103.014 218.232,103.034 217.803,103.053C217.427,103.073 217.056,103.087 216.68,103.106L216.68,94.866C216.68,94.866 216.811,94.603 216.811,94.213L216.494,94.246C216.494,94.246 216.494,90.662 218.617,89.396ZM218.907,64.359C219.296,65.389 219.296,66.54 219.296,66.54L218.979,66.657C218.979,67.051 219.11,67.242 219.11,67.242L219.11,75.693C218.275,75.912 217.464,76.133 216.68,76.353L216.68,70.139C216.68,70.139 216.811,69.866 216.811,69.499L216.494,69.612C216.494,69.612 216.494,65.977 218.907,64.359ZM219.685,40.826C219.779,41.46 219.779,41.972 219.779,41.972L219.483,42.182C219.483,42.604 219.605,42.781 219.605,42.781L219.605,50.797C218.776,51.183 217.977,51.568 217.194,51.952L217.194,47.661C217.194,47.661 217.318,47.348 217.318,46.969L217.018,47.156C217.018,47.156 217.018,42.971 219.685,40.826ZM217.045,21.846C217.453,21.531 217.875,21.212 218.302,20.899L218.302,24.41L217.999,24.655L217.988,24.658C217.667,24.884 217.355,25.112 217.045,25.337L217.045,21.846ZM371.542,108.937C371.518,108.514 371.21,108.182 370.829,108.157C370.829,108.157 365.941,108 361.924,107.718C361.815,107.711 361.69,107.703 361.579,107.696C361.621,107.536 361.66,107.376 361.707,107.217C362.06,106.02 362.392,104.815 362.719,103.611L361.786,102.911L361.014,101.56L361.09,93.321L361.074,92.474C361.074,92.474 361.314,92.36 361.314,91.751C361.314,91.751 363.045,90.39 361.617,88.965L361.617,88.433L361.786,88.433L361.786,87.95L361.391,87.95L361.391,87.389C361.391,87.389 361.789,87.035 361.314,86.771L361.331,78.898L361.485,78.898L361.485,75.143C361.485,75.143 362.049,74.879 361.485,73.62C361.196,72.971 361.485,72.695 361.485,72.571C361.485,72.441 361.485,72.281 361.074,71.871C360.635,71.429 360.692,71.043 360.692,71.043L360.692,62.554C360.692,62.554 343.62,43.154 303.165,40.298C299.951,40.071 296.591,39.947 293.078,39.947L293.078,42.992L292.172,45.251C290.537,45.226 289.055,45.212 287.827,45.21L287.827,41.127L280.829,41.127L280.829,45.223L271.953,45.223L267.294,38.247L266.293,38.247L265.805,37.764L261.772,38.276L261.97,38.877L257.045,39.62L253.616,30.123L251.635,28.144L251.721,26.843L252.493,26.792L252.505,25.423L251.993,24.906L251.993,24.564L252.467,24.564L252.467,22.831L252.24,22.638L252.24,20.123L252.032,20.086L252.032,18.102L249.552,15.57L248.523,15.854L248.199,15.492L245.968,16.029L239.893,6.516L239.893,6.074L237.025,3.965L236.371,4.181L235.977,3.199L232.316,0.99C198.151,16.234 197.749,36.323 197.749,36.323L197.749,38.44L198.727,38.44L198.493,50.92C195.825,56.982 198.04,60.929 198.04,60.929L198.04,66.719C198.04,66.719 198.064,66.889 197.968,67.132C197.908,67.282 197.8,67.461 197.609,67.651C197.145,68.117 197.145,68.294 197.145,68.435C197.145,68.581 197.473,68.891 197.145,69.616C196.512,71.032 197.145,71.332 197.145,71.332L197.145,75.555L197.32,75.555L197.338,84.406C196.806,84.701 197.254,85.101 197.254,85.101L197.254,85.733L196.81,85.733L196.81,86.273L196.996,86.273L196.996,86.874C195.922,87.947 196.441,88.99 196.903,89.557C197.126,89.84 197.338,90.006 197.338,90.006C197.338,90.693 197.609,90.819 197.609,90.819L197.378,103.14L196.991,103.499C197.086,104.241 197.172,104.986 197.214,105.742L197.214,105.768C197.357,106.4 197.449,107.04 197.518,107.684C197.34,107.695 197.147,107.707 196.977,107.718C192.96,108 188.072,108.157 188.072,108.157C187.69,108.182 187.383,108.514 187.358,108.937L330.736,108.937L330.735,108.937L371.542,108.937Z" style="fill:rgb(0,118,178);fill-rule:nonzero;"></path>        </g>    </g></svg>